<?xml version="1.0" encoding="utf-8"?>
<!-- Generator: Adobe Illustrator 16.0.4, SVG Export Plug-In . SVG Version: 6.00 Build 0)  -->
<!DOCTYPE svg PUBLIC "-//W3C//DTD SVG 1.1//EN" "http://www.w3.org/Graphics/SVG/1.1/DTD/svg11.dtd">
<svg version="1.1" id="Layer_1" xmlns="http://www.w3.org/2000/svg" xmlns:xlink="http://www.w3.org/1999/xlink" x="0px" y="0px"
	 width="424px" height="140px" viewBox="0 0 424 140" enable-background="new 0 0 424 140" xml:space="preserve">
<path fill="none" stroke="#29C2E4" stroke-width="3" stroke-miterlimit="10" d="M214.714,120.903
	c17.097-11.825,21.987-36.975,17.021-56.085c-4.272-16.433-21.955-27.407-37.047-15.664"/>
<path fill="none" stroke="#864D9E" stroke-width="3" stroke-linecap="round" stroke-linejoin="round" stroke-miterlimit="10" d="
	M253.762,105.983c-6.264-2.014-12.535-4.082-18.829-6.075c-22.827-7.235-46.253-12.657-70.01-6.729
	c-12.114,3.021-23.566,7.65-34.845,12.71"/>
<path fill="none" stroke="#29C2E4" stroke-width="3" stroke-miterlimit="10" d="M194.688,49.154
	c-13.476,10.492-12.394,30.744-6.502,44.96c6.174,14.895,18.838,31.318,35.766,31.945c12.227,0.452,26.105-9.304,29.805-20.965"/>
<path fill="none" stroke="#29C2E4" stroke-width="3" stroke-miterlimit="10" d="M212.387,122.364
	c0.787-0.447,1.563-0.934,2.327-1.461"/>
<path fill="none" stroke="#F08D21" stroke-width="3" stroke-miterlimit="10" d="M365.377,106.913
	c6.53,5.994,14.305,10.392,23.606,12.014c5.546,0.963,13.19,1.524,18.479-0.803c4.561-2.006,7.697-7.314,5.164-12.05
	c-2.84-5.309-11.937-6.219-17.193-6.267c-12.775-0.113-24.633,8.167-36.137,12.662c-36.267,14.168-70.758,4.689-105.535-6.486"/>
<g>
	<g>
		<path fill="none" stroke="#63AF45" stroke-width="3" stroke-linecap="round" stroke-linejoin="round" d="M253.756,105.979
			c0.361-0.69,0.713-1.446,1.056-2.264"/>
		
			<path fill="none" stroke="#63AF45" stroke-width="3" stroke-linecap="round" stroke-linejoin="round" stroke-dasharray="5.0395,8.0632" d="
			M257.37,96.078c5.738-20.478,10.077-57.16,24.343-75.731c8.348-10.866,22.824-14.82,34.328-5.84
			c16.356,12.766,18.695,36.781,25.873,54.905c4.489,11.344,10.524,23.386,18.889,32.831"/>
		<path fill="none" stroke="#63AF45" stroke-width="3" stroke-linecap="round" stroke-linejoin="round" d="M363.571,105.184
			c0.591,0.59,1.193,1.166,1.806,1.729"/>
	</g>
</g>
<g>
	<g>
		<path fill="none" stroke="#D31E47" stroke-width="3" stroke-linecap="round" stroke-linejoin="round" d="M131.801,105.121
			c0.757,0.347,1.515,0.694,2.272,1.042"/>
		
			<path fill="none" stroke="#D31E47" stroke-width="3" stroke-linecap="round" stroke-linejoin="round" stroke-dasharray="4.8465,7.7544" d="
			M141.116,109.41c8.784,4.051,17.584,8.076,26.54,11.714c12.812,5.203,28.342,9.271,41.477,3.73"/>
		<path fill="none" stroke="#D31E47" stroke-width="3" stroke-linecap="round" stroke-linejoin="round" d="M212.602,123.126
			c0.714-0.413,1.418-0.858,2.112-1.339"/>
	</g>
</g>
<path fill="none" stroke="#F27BA9" stroke-width="3" stroke-miterlimit="10" d="M253.756,105.979"/>
<path fill="none" stroke="#FAAF3C" stroke-width="3" stroke-linecap="round" stroke-linejoin="round" stroke-miterlimit="10" d="
	M130.028,105.89c-16.038,6.999-33.727,11.474-50.484,16.6c-15.888,4.858-58.09,14.879-67.456-5.576
	c-5.175-11.303,1.552-24.14,11.739-29.891c15.376-8.682,34.367-5.155,50.662-1.314c19.694,4.64,38.897,11.209,57.312,19.412"/>
<g>
	<path fill="#FFFFFF" d="M212.94,127.667c-2.357,0-4.305-2.096-4.343-4.453c-0.018-1.162,0.479-2.349,1.286-3.182
		c0.808-0.834,2.116-1.349,3.116-1.366v-0.021c2,0,4.316,1.907,4.354,4.266c0.018,1.161-0.448,2.432-1.256,3.265
		c-0.809,0.834-1.925,1.492-3.086,1.492H212.94z"/>
	<path fill="#1C1C1C" d="M212.946,119.667c1.824,0,3.315,1.617,3.345,3.447c0.029,1.85-1.445,3.553-3.295,3.553
		c-0.019,0-0.037,0-0.056,0c-1.825,0-3.314-1.615-3.343-3.447c-0.029-1.848,1.443-3.553,3.293-3.553c0.019,0,0.109,0,0.109,0
		 M212.947,117.667h-0.089c-1.427,0-2.762,0.577-3.755,1.603c-0.993,1.025-1.528,2.543-1.505,3.971
		c0.046,2.901,2.443,5.427,5.343,5.427h0.088c1.427,0,2.762-0.775,3.756-1.801s1.529-2.443,1.507-3.871
		C218.245,120.093,215.848,117.667,212.947,117.667L212.947,117.667z"/>
</g>
<g>
	<path fill="#FFFFFF" d="M368.06,113.667c-2.36,0-4.305-2.129-4.34-4.488c-0.039-2.395,2.28-4.482,4.28-4.521v-0.053
		c2,0,4.373,2.104,4.414,4.464c0.035,2.398-1.889,4.599-4.283,4.599H368.06z"/>
	<path fill="#1C1C1C" d="M368.062,105.667c1.825,0,3.317,1.617,3.349,3.449c0.027,1.848-1.445,3.551-3.295,3.551
		c-0.019,0-0.037,0-0.056,0c-1.824,0-3.316-1.615-3.344-3.445c-0.03-1.85,1.444-3.555,3.293-3.555c0.018,0-0.009,0-0.009,0
		 M368.062,103.667h-0.084c-2.95,0-5.31,2.641-5.262,5.588c0.043,2.898,2.44,5.412,5.344,5.412h0.088
		c2.944,0,5.306-2.633,5.263-5.58C373.36,106.18,370.962,103.667,368.062,103.667L368.062,103.667z"/>
</g>
<g>
	<path fill="#FFFFFF" d="M253.73,109.667c-2.359,0-4.31-1.9-4.346-4.258c-0.019-1.162,0.584-2.251,1.393-3.086
		c0.807-0.833,1.223-1.299,3.223-1.317v0.003c2,0,4.209,1.901,4.246,4.261c0.038,2.396-2.049,4.397-4.445,4.397H253.73z"/>
	<path fill="#010101" d="M253.732,101.667c1.823,0,3.316,1.617,3.346,3.447c0.029,1.85-1.444,3.553-3.293,3.553
		c-0.018,0-0.036,0-0.055,0c-1.824,0-3.317-1.615-3.346-3.445c-0.03-1.85,1.444-3.555,3.294-3.555c0.018,0,0.321,0,0.321,0
		 M253.733,99.667h-0.087c-1.428,0-2.763,0.772-3.756,1.798c-0.994,1.026-1.529,2.446-1.506,3.876
		c0.045,2.898,2.442,5.326,5.346,5.326h0.087c2.947,0,5.308-2.637,5.261-5.584C259.032,102.18,256.634,99.667,253.733,99.667
		L253.733,99.667z"/>
</g>
<g>
	<path fill="#FFFFFF" d="M253.73,109.667c-2.359,0-4.31-1.9-4.346-4.258c-0.019-1.162,0.584-2.251,1.393-3.086
		c0.807-0.833,1.223-1.299,3.223-1.317v0.003c2,0,4.209,1.901,4.246,4.261c0.038,2.396-2.049,4.397-4.445,4.397H253.73z"/>
	<path fill="#1C1C1C" d="M253.732,101.667c1.823,0,3.316,1.617,3.346,3.447c0.029,1.85-1.444,3.553-3.293,3.553
		c-0.018,0-0.036,0-0.055,0c-1.824,0-3.317-1.615-3.346-3.445c-0.03-1.85,1.444-3.555,3.294-3.555c0.018,0,0.321,0,0.321,0
		 M253.733,99.667h-0.087c-1.428,0-2.763,0.772-3.756,1.798c-0.994,1.026-1.529,2.446-1.506,3.876
		c0.045,2.898,2.442,5.326,5.346,5.326h0.087c2.947,0,5.308-2.637,5.261-5.584C259.032,102.18,256.634,99.667,253.733,99.667
		L253.733,99.667z"/>
</g>
<g>
	<path fill="#FFFFFF" d="M132.317,109.667c-2.359,0-4.309-1.829-4.346-4.188c-0.019-1.161,0.292-2.215,1.1-3.049
		c0.808-0.834,1.929-1.281,2.929-1.3v0.012c3,0,4.501,1.924,4.54,4.281c0.018,1.162-0.354,2.175-1.162,3.008
		c-0.808,0.834-1.83,1.235-2.991,1.235H132.317z"/>
	<path fill="#1C1C1C" d="M132.321,101.667c1.822,0,3.314,1.616,3.344,3.447c0.029,1.849-1.445,3.553-3.294,3.553
		c-0.018,0-0.036,0-0.054,0c-1.824,0-3.317-1.615-3.346-3.446c-0.03-1.85,1.445-2.554,3.294-3.554c0.019,0-0.265,0-0.265,0
		 M132.321,99.667h-0.088c-1.428,1-2.762,0.843-3.755,1.868c-0.995,1.026-1.529,2.411-1.506,3.841
		c0.046,2.898,2.444,5.291,5.346,5.291h0.086c2.948,0,5.308-2.637,5.262-5.584C137.617,102.18,135.22,99.667,132.321,99.667
		L132.321,99.667z"/>
</g>
</svg>
