<?xml version="1.0" encoding="utf-8"?>
<!-- Generator: Adobe Illustrator 16.0.4, SVG Export Plug-In . SVG Version: 6.00 Build 0)  -->
<!DOCTYPE svg PUBLIC "-//W3C//DTD SVG 1.1//EN" "http://www.w3.org/Graphics/SVG/1.1/DTD/svg11.dtd">
<svg version="1.1" id="Layer_1" xmlns="http://www.w3.org/2000/svg" xmlns:xlink="http://www.w3.org/1999/xlink" x="0px" y="0px"
	 width="389.5px" height="180px" viewBox="0 0 389.5 180" enable-background="new 0 0 389.5 180" xml:space="preserve">
<g>
	<g>
		<path fill-rule="evenodd" clip-rule="evenodd" fill="#0A0A0A" d="M382.724,161.346c-0.146,0.933-0.262,1.874-0.438,2.802
			c-1.58,8.144-8.711,13.472-17.22,12.881c-7.552-0.523-14.011-7.142-14.281-14.973c-0.205-6-0.285-12.028,0.035-18.018
			c0.36-6.661,3.997-11.374,10.189-13.728c6.31-2.401,12.047-1.011,16.968,3.637c0.283,0.27,0.547,0.562,0.825,0.837
			c0.023,0.027,0.069,0.029,0.329,0.132c0-0.52,0-0.966,0-1.409c0-6.75,0.013-13.503-0.011-20.254
			c-0.004-1.115,0.231-2.05,1.249-2.65c0.786,0,1.571,0,2.354,0C382.724,127.515,382.724,144.431,382.724,161.346z M379.097,153.184
			c0-2.922,0.091-5.845-0.018-8.759c-0.239-6.477-5.79-11.724-12.349-11.778c-6.645-0.057-12.366,5.261-12.523,11.858
			c-0.135,5.751-0.135,11.51,0.002,17.262c0.161,6.659,5.752,11.881,12.473,11.881c6.629-0.002,12.16-5.239,12.397-11.835
			C379.185,158.939,379.098,156.061,379.097,153.184z"/>
		<path fill-rule="evenodd" clip-rule="evenodd" fill="#0A0A0A" d="M252.469,110.603c1.23,0.483,1.379,1.479,1.376,2.651
			c-0.02,16.467-0.017,32.932-0.01,49.393c0.002,2.993,0.329,5.952,2.082,8.478c0.69,0.998,1.737,1.79,2.733,2.519
			c1.122,0.819,1.528,1.633,0.993,2.588c-0.514,0.921-1.551,1.134-2.741,0.451c-2.989-1.717-4.871-4.346-5.696-7.63
			c-0.481-1.921-0.775-3.944-0.78-5.924c-0.062-16.638-0.028-33.275-0.052-49.915c-0.003-1.145,0.272-2.04,1.312-2.61
			C251.944,110.603,252.206,110.603,252.469,110.603z"/>
		<path fill-rule="evenodd" clip-rule="evenodd" fill="#0A0A0A" d="M295.457,153.097c0,3.791,0.244,7.6-0.052,11.367
			c-0.545,6.946-6.157,12.161-13.137,12.577c-4.406,0.262-8.53-0.555-11.985-3.473c-6.644-5.601-5.52-15.943,2.109-20.324
			c3.67-2.108,7.746-2.777,11.773-3.669c2.335-0.521,4.677-1.001,7.005-1.553c0.337-0.082,0.863-0.456,0.864-0.698
			c0.014-3.072,0.376-6.196-0.97-9.129c-1.533-3.341-4.335-4.861-7.796-5.351c-4.646-0.661-8.707,0.431-11.94,4.049
			c-1.018,1.141-1.936,1.206-2.698,0.414c-0.902-0.935-0.495-1.841,0.189-2.672c3.63-4.396,8.447-5.739,13.903-5.33
			c3.532,0.263,6.718,1.423,9.222,4.051c2.682,2.817,3.584,6.295,3.616,10.064c0.029,3.227,0.007,6.451,0.007,9.676
			C295.531,153.097,295.494,153.097,295.457,153.097z M292.001,151.411c-3.401,0.774-6.726,1.41-9.979,2.301
			c-2.66,0.731-5.423,1.42-7.812,2.729c-6.442,3.529-6.467,11.92-0.148,15.563c2.978,1.716,6.275,2.081,9.606,1.289
			c5.462-1.296,8.364-5.05,8.415-10.703c0.03-3.309,0.009-6.618,0.004-9.924C292.085,152.285,292.035,151.907,292.001,151.411z"/>
		<path fill-rule="evenodd" clip-rule="evenodd" fill="#0A0A0A" d="M107.133,153.117c0,3.787,0.244,7.599-0.052,11.365
			c-0.546,6.938-6.172,12.165-13.154,12.554c-4.991,0.283-9.587-0.755-13.104-4.567c-5.463-5.921-3.818-15.171,3.268-19.232
			c3.273-1.877,6.882-2.613,10.493-3.396c2.764-0.597,5.528-1.183,8.28-1.823c0.335-0.078,0.852-0.465,0.852-0.709
			c0.007-3.075,0.37-6.197-0.979-9.127c-1.541-3.343-4.345-4.851-7.807-5.34c-4.65-0.658-8.704,0.447-11.937,4.063
			c-1.01,1.137-1.941,1.193-2.699,0.391c-0.891-0.943-0.468-1.845,0.217-2.674c3.632-4.392,8.455-5.726,13.907-5.314
			c3.535,0.266,6.717,1.43,9.218,4.061c2.677,2.821,3.572,6.303,3.604,10.071c0.028,3.226,0.006,6.45,0.006,9.674
			C107.208,153.117,107.172,153.117,107.133,153.117z M103.577,151.402c-4.586,1.068-9.123,2.06-13.617,3.216
			c-1.449,0.37-2.865,1.044-4.162,1.806c-6.288,3.696-6.367,11.887-0.104,15.542c3.171,1.854,6.663,2.157,10.221,1.167
			c3.965-1.102,6.547-3.609,7.597-7.629c0.022-0.081,0.062-0.168,0.062-0.251C103.577,160.693,103.577,156.139,103.577,151.402z"/>
		<path fill-rule="evenodd" clip-rule="evenodd" fill="#0A0A0A" d="M150.754,158.999c0,5.056,0.032,10.111-0.04,15.165
			c-0.009,0.624-0.439,1.405-0.929,1.805c-0.334,0.271-1.327,0.227-1.631-0.074c-0.462-0.454-0.791-1.253-0.801-1.91
			c-0.059-5.446-0.034-10.896-0.034-16.345c0-4.139,0.024-8.279-0.005-12.42c-0.046-6.357-4.778-11.762-10.839-12.42
			c-6.696-0.725-12.45,3.284-13.881,9.741c-0.253,1.139-0.312,2.333-0.313,3.503c-0.023,9.11-0.013,18.219-0.017,27.329
			c0,0.479,0.139,1.061-0.08,1.412c-0.353,0.562-0.917,1.297-1.453,1.352c-0.541,0.056-1.253-0.54-1.699-1.027
			c-0.263-0.284-0.199-0.911-0.199-1.383c-0.013-9.413-0.033-18.829,0.001-28.243c0.029-7.854,5.011-14.109,12.566-15.888
			c9.487-2.231,19.102,5.138,19.313,14.889c0.106,4.836,0.02,9.675,0.02,14.515C150.741,158.999,150.747,158.999,150.754,158.999z"
			/>
		<path fill-rule="evenodd" clip-rule="evenodd" fill="#0A0A0A" d="M339.076,159.054c0,4.84,0.002,9.681,0,14.515
			c0,0.393,0.012,0.791-0.035,1.176c-0.123,0.981-0.803,1.606-1.675,1.431c-0.624-0.125-1.224-0.794-1.639-1.363
			c-0.231-0.32-0.081-0.927-0.081-1.407c-0.003-9.415,0.022-18.83-0.015-28.243c-0.022-6.227-4.731-11.637-10.632-12.339
			c-7.944-0.945-14.347,4.62-14.396,12.628c-0.056,9.282-0.014,18.563-0.015,27.851c0,0.478,0.001,0.961-0.041,1.437
			c-0.086,0.928-0.676,1.405-1.546,1.483c-0.897,0.08-1.501-0.4-1.738-1.26c-0.101-0.369-0.113-0.773-0.113-1.161
			c-0.006-9.458-0.037-18.918,0.008-28.374c0.04-8.717,6.298-15.446,14.946-16.181c8.656-0.735,16.744,6.455,16.929,15.169
			c0.105,4.877,0.02,9.761,0.02,14.64C339.061,159.054,339.068,159.054,339.076,159.054z"/>
		<path fill-rule="evenodd" clip-rule="evenodd" fill="#0A0A0A" d="M16.583,128.842c-2.627,0-5.099,0.003-7.57-0.006
			c-0.478-0.001-0.957-0.015-1.426-0.091c-0.989-0.155-1.426-0.841-1.38-1.76c0.044-0.867,0.528-1.496,1.47-1.537
			c1.393-0.062,2.784-0.079,4.177-0.092c1.518-0.016,3.035-0.003,4.729-0.003c0-0.79-0.016-3.542,0.008-6.592
			c0.011-1.468,0.577-2.155,1.685-2.188c1.172-0.028,1.754,0.661,1.764,2.212c0.02,3.223,0.008,5.974,0.008,6.568
			c0.58,0.028,1.042,0,1.504,0c4.49,0.005,8.977-0.007,13.464,0.006c0.562,0.001,1.235-0.089,1.66,0.174
			c0.517,0.321,1.121,0.965,1.146,1.489c0.021,0.532-0.519,1.235-1.01,1.595c-0.396,0.283-1.085,0.216-1.643,0.218
			c-4.962,0.012-9.926,0.007-15.042,0.007c-0.03,0.577-0.077,1.076-0.077,1.575c-0.004,9.934-0.009,24.574-0.002,34.506
			c0.005,6.01,4.777,9.88,10.654,8.467c1.685-0.403,3.22-1.424,4.824-2.148c0.541-0.247,1.156-0.719,1.634-0.613
			c0.587,0.133,1.339,0.669,1.507,1.192c0.159,0.5-0.155,1.436-0.586,1.793c-3.34,2.778-7.203,4.032-11.533,3.286
			c-6.395-1.104-9.957-5.421-9.962-11.896c-0.007-9.888-0.002-24.487-0.002-34.378C16.583,130.108,16.583,129.588,16.583,128.842z"
			/>
		<path fill-rule="evenodd" clip-rule="evenodd" fill="#0A0A0A" d="M220.478,128.842c-2.629,0-5.1,0.003-7.572-0.006
			c-0.475-0.001-0.956-0.015-1.426-0.091c-0.988-0.155-1.426-0.841-1.379-1.76c0.045-0.867,0.531-1.496,1.471-1.537
			c1.391-0.062,2.784-0.079,4.175-0.092c1.519-0.016,3.037-0.003,4.731-0.003c0-0.79-0.016-3.542,0.008-6.592
			c0.013-1.468,0.578-2.155,1.684-2.188c1.173-0.028,1.756,0.661,1.763,2.212c0.021,3.223,0.008,5.974,0.008,6.568
			c0.58,0.028,1.046,0,1.507,0c4.488,0.005,8.974-0.007,13.462,0.006c0.562,0.001,1.234-0.089,1.66,0.174
			c0.518,0.321,1.123,0.965,1.146,1.489c0.022,0.532-0.518,1.235-1.008,1.595c-0.396,0.283-1.086,0.216-1.644,0.218
			c-4.962,0.012-9.925,0.007-15.044,0.007c-0.03,0.577-0.074,1.076-0.074,1.575c-0.005,9.934-0.009,24.574-0.003,34.506
			c0.003,6.01,4.776,9.88,10.655,8.467c1.684-0.403,3.216-1.424,4.824-2.148c0.541-0.247,1.156-0.719,1.632-0.613
			c0.587,0.133,1.341,0.669,1.51,1.192c0.157,0.5-0.159,1.436-0.587,1.793c-3.343,2.778-7.204,4.032-11.534,3.286
			c-6.396-1.104-9.956-5.421-9.962-11.896c-0.007-9.888-0.002-24.487-0.002-34.378C220.478,130.108,220.478,129.588,220.478,128.842
			z"/>
		<path fill-rule="evenodd" clip-rule="evenodd" fill="#0A0A0A" d="M172.956,177.078c-3.617-0.219-7.873-1.311-11.057-4.973
			c-1.009-1.158-1.033-2.14-0.167-2.839c0.861-0.692,1.734-0.431,2.798,0.644c3.551,3.603,7.946,4.379,12.658,3.31
			c1.844-0.417,3.743-1.302,5.23-2.468c4.63-3.631,4.151-10.538-1.04-13.675c-2.95-1.785-6.267-2.97-9.438-4.375
			c-2.629-1.166-5.298-2.255-7.387-4.323c-4.945-4.899-4.173-12.878,1.607-16.771c6.169-4.16,15.723-2.616,20.156,3.255
			c1.048,1.387,1.102,2.205,0.189,2.95c-0.958,0.781-1.724,0.616-2.854-0.716c-2.188-2.579-4.918-4.149-8.31-4.378
			c-2.854-0.192-5.564,0.348-7.85,2.205c-3.672,2.982-4.071,9.327,1.484,12.298c3.016,1.615,6.315,2.689,9.382,4.222
			c2.431,1.217,4.953,2.465,6.992,4.211c5.282,4.534,5.525,15.143-3.338,19.566C179.474,176.489,176.784,177.095,172.956,177.078z"
			/>
		<path fill-rule="evenodd" clip-rule="evenodd" fill="#0A0A0A" d="M46.646,159.121c0-4.619-0.047-9.241,0.014-13.86
			c0.05-3.623,0.814-7.096,2.835-10.169c3.58-5.447,10.528-7.396,17.023-4.688c1.534,0.639,2.911,1.696,4.291,2.66
			c0.87,0.607,1.057,1.535,0.322,2.376c-0.744,0.849-1.657,0.846-2.553,0.143c-1.876-1.48-3.936-2.509-6.357-2.793
			c-6.447-0.76-10.572,3.121-11.654,8.675c-0.322,1.657-0.462,3.371-0.468,5.062c-0.046,8.936-0.021,17.87-0.023,26.806
			c0,0.479,0.005,0.962-0.047,1.437c-0.1,0.925-0.729,1.522-1.561,1.405c-0.607-0.085-1.234-0.641-1.659-1.148
			c-0.252-0.302-0.168-0.917-0.169-1.392c-0.009-4.837-0.007-9.674-0.007-14.514H46.646z"/>
		<path fill-rule="evenodd" clip-rule="evenodd" fill="#0A0A0A" d="M199.476,153.239c0-6.707-0.004-13.414,0.004-20.122
			c0.002-0.564,0.034-1.131,0.115-1.689c0.129-0.871,0.749-1.396,1.545-1.229c0.608,0.129,1.223,0.63,1.641,1.131
			c0.252,0.301,0.173,0.916,0.173,1.391c0.007,13.635,0.007,27.265-0.002,40.898c-0.001,0.516,0.046,1.144-0.215,1.52
			c-0.331,0.476-0.967,1.036-1.454,1.019c-0.558-0.02-1.242-0.524-1.596-1.019c-0.284-0.396-0.202-1.086-0.202-1.648
			C199.471,166.743,199.476,159.989,199.476,153.239z"/>
	</g>
	<g>
		<g>
			<path fill="#8AC440" d="M253.027,94.558c-0.279,0-0.562-0.088-0.801-0.27c-0.591-0.442-0.709-1.278-0.265-1.868
				c0.434-0.578,0.87-1.188,1.29-1.806c0.415-0.609,1.242-0.772,1.853-0.354c0.61,0.411,0.767,1.241,0.354,1.851
				c-0.444,0.656-0.904,1.299-1.365,1.914C253.83,94.372,253.431,94.558,253.027,94.558z"/>
		</g>
		<g>
			<path fill="#8AC440" d="M345.193,90.87c-0.37,0-0.736-0.153-1.001-0.451c-1.045-1.18-2.051-2.433-2.987-3.724
				c-0.435-0.595-0.302-1.431,0.294-1.861c0.597-0.433,1.431-0.3,1.863,0.295c0.887,1.22,1.838,2.407,2.827,3.522
				c0.488,0.548,0.439,1.392-0.113,1.884C345.821,90.758,345.507,90.87,345.193,90.87z M257.523,87.373
				c-0.207,0-0.417-0.049-0.613-0.152c-0.654-0.34-0.908-1.144-0.567-1.799c0.68-1.305,1.334-2.688,1.943-4.11
				c0.289-0.677,1.073-0.991,1.749-0.701c0.679,0.293,0.992,1.076,0.703,1.753c-0.638,1.483-1.319,2.927-2.028,4.293
				C258.473,87.11,258.006,87.373,257.523,87.373z M338.962,82.021c-0.469,0-0.923-0.246-1.168-0.688
				c-0.746-1.343-1.464-2.77-2.138-4.238c-0.306-0.672-0.01-1.464,0.659-1.771c0.675-0.304,1.463-0.01,1.77,0.66
				c0.642,1.408,1.329,2.771,2.04,4.054c0.36,0.645,0.129,1.456-0.516,1.813C339.404,81.968,339.182,82.021,338.962,82.021z
				 M261.7,77.373c-0.138,0-0.28-0.021-0.42-0.068c-0.698-0.232-1.078-0.987-0.846-1.685c0.462-1.394,0.906-2.868,1.324-4.384
				c0.2-0.712,0.937-1.122,1.643-0.933c0.709,0.193,1.127,0.93,0.932,1.641c-0.43,1.562-0.89,3.079-1.366,4.515
				C262.781,77.019,262.26,77.373,261.7,77.373z M334.55,72.126c-0.548,0-1.061-0.34-1.256-0.885
				c-0.507-1.415-0.998-2.922-1.47-4.48c-0.213-0.706,0.188-1.449,0.892-1.664c0.701-0.213,1.45,0.187,1.663,0.892
				c0.457,1.519,0.938,2.983,1.428,4.357c0.248,0.693-0.115,1.456-0.808,1.705C334.85,72.103,334.7,72.126,334.55,72.126z
				 M264.516,66.902c-0.093,0-0.188-0.012-0.281-0.03c-0.719-0.155-1.179-0.865-1.024-1.585c0.224-1.042,0.437-2.09,0.637-3.14
				c0.089-0.459,0.174-0.919,0.258-1.38c0.132-0.724,0.829-1.207,1.552-1.074c0.725,0.134,1.206,0.826,1.073,1.551
				c-0.085,0.47-0.174,0.938-0.262,1.405c-0.205,1.069-0.42,2.136-0.649,3.198C265.684,66.475,265.131,66.902,264.516,66.902z
				 M331.462,61.729c-0.598,0-1.143-0.402-1.294-1.007c-0.38-1.511-0.741-3.028-1.089-4.552c-0.163-0.718,0.286-1.435,1.003-1.598
				c0.717-0.168,1.436,0.284,1.599,1.003c0.343,1.505,0.699,3.003,1.074,4.496c0.181,0.714-0.252,1.44-0.968,1.618
				C331.678,61.718,331.566,61.729,331.462,61.729z M266.46,56.231c-0.068,0-0.141-0.005-0.213-0.019
				c-0.728-0.118-1.224-0.802-1.106-1.53c0.226-1.389,0.444-2.78,0.662-4.17l0.066-0.419c0.114-0.723,0.793-1.227,1.525-1.107
				c0.728,0.113,1.226,0.797,1.109,1.524l-0.064,0.417c-0.22,1.394-0.439,2.788-0.663,4.18
				C267.67,55.766,267.103,56.231,266.46,56.231z M329.037,51.151c-0.614,0-1.165-0.425-1.303-1.049
				c-0.327-1.516-0.657-3.027-0.993-4.535c-0.16-0.719,0.292-1.433,1.011-1.592c0.717-0.156,1.433,0.291,1.593,1.011
				c0.337,1.511,0.668,3.03,0.999,4.548c0.153,0.721-0.302,1.434-1.021,1.59C329.227,51.143,329.131,51.151,329.037,51.151z
				 M268.178,45.518c-0.072,0-0.148-0.008-0.224-0.02c-0.727-0.123-1.216-0.812-1.094-1.536c0.26-1.539,0.533-3.076,0.823-4.604
				c0.138-0.727,0.832-1.195,1.559-1.064c0.725,0.14,1.198,0.837,1.062,1.562c-0.288,1.512-0.556,3.03-0.812,4.55
				C269.383,45.057,268.817,45.518,268.178,45.518z M326.628,40.574c-0.6,0-1.142-0.404-1.295-1.009
				c-0.252-1.012-0.513-2.024-0.784-3.025c-0.127-0.464-0.261-0.932-0.401-1.41c-0.209-0.705,0.192-1.449,0.899-1.659
				c0.702-0.209,1.447,0.195,1.659,0.9c0.146,0.498,0.285,0.988,0.416,1.471c0.276,1.018,0.543,2.047,0.801,3.076
				c0.179,0.715-0.258,1.438-0.972,1.619C326.843,40.563,326.734,40.574,326.628,40.574z M270.275,34.874
				c-0.102,0-0.205-0.01-0.307-0.037c-0.718-0.168-1.161-0.884-0.993-1.604c0.089-0.376,0.181-0.752,0.271-1.129
				c0.284-1.144,0.61-2.307,0.974-3.454c0.222-0.701,0.974-1.091,1.673-0.871c0.702,0.226,1.092,0.974,0.87,1.674
				c-0.347,1.095-0.656,2.202-0.925,3.289c-0.089,0.367-0.18,0.735-0.266,1.104C271.428,34.461,270.881,34.874,270.275,34.874z
				 M323.393,30.226c-0.532,0-1.033-0.318-1.24-0.841c-0.569-1.427-1.185-2.832-1.831-4.176c-0.318-0.665-0.04-1.46,0.624-1.781
				c0.659-0.316,1.463-0.039,1.781,0.624c0.672,1.399,1.312,2.863,1.903,4.347c0.273,0.682-0.061,1.46-0.747,1.733
				C323.723,30.193,323.555,30.226,323.393,30.226z M273.702,24.599c-0.186,0-0.371-0.038-0.549-0.119
				c-0.671-0.304-0.971-1.096-0.667-1.764c0.669-1.479,1.401-2.91,2.18-4.257c0.368-0.638,1.186-0.857,1.82-0.488
				c0.639,0.368,0.857,1.185,0.489,1.821c-0.733,1.271-1.427,2.624-2.058,4.022C274.695,24.305,274.209,24.599,273.702,24.599z
				 M318.556,20.521c-0.448,0-0.885-0.226-1.137-0.634c-0.814-1.319-1.675-2.574-2.555-3.727c-0.445-0.586-0.333-1.422,0.254-1.869
				c0.584-0.447,1.422-0.335,1.869,0.251c0.932,1.222,1.841,2.551,2.701,3.94c0.387,0.628,0.194,1.451-0.434,1.838
				C319.036,20.455,318.796,20.521,318.556,20.521z M279.32,15.346c-0.296,0-0.593-0.098-0.841-0.3
				c-0.572-0.466-0.656-1.304-0.191-1.876c1.05-1.289,2.167-2.476,3.323-3.524c0.546-0.499,1.389-0.456,1.884,0.089
				c0.496,0.546,0.456,1.389-0.092,1.884c-1.055,0.962-2.08,2.049-3.05,3.237C280.092,15.179,279.707,15.346,279.32,15.346z
				 M311.788,12.079c-0.325,0-0.651-0.119-0.909-0.358c-1.122-1.044-2.29-1.963-3.469-2.729c-0.617-0.404-0.79-1.229-0.388-1.847
				c0.4-0.618,1.228-0.793,1.849-0.39c1.302,0.851,2.59,1.864,3.825,3.012c0.539,0.501,0.571,1.347,0.068,1.886
				C312.501,11.936,312.145,12.079,311.788,12.079z M287.546,8.387c-0.479,0-0.938-0.257-1.179-0.708
				c-0.346-0.649-0.099-1.457,0.551-1.804c1.465-0.779,3.005-1.398,4.568-1.838c0.709-0.204,1.447,0.214,1.644,0.923
				c0.202,0.712-0.213,1.448-0.922,1.646c-1.383,0.388-2.739,0.936-4.037,1.626C287.972,8.337,287.757,8.387,287.546,8.387z
				 M302.548,6.602c-0.123,0-0.248-0.016-0.372-0.051c-1.385-0.4-2.812-0.626-4.246-0.671c-0.735-0.023-1.312-0.639-1.289-1.376
				c0.022-0.736,0.638-1.318,1.374-1.291c1.655,0.052,3.303,0.312,4.902,0.774c0.706,0.205,1.116,0.943,0.911,1.65
				C303.66,6.223,303.126,6.602,302.548,6.602z"/>
		</g>
		<g>
			<path fill="#8AC440" d="M351.303,96.812c-0.303,0-0.607-0.104-0.857-0.312c-0.599-0.502-1.186-1.019-1.763-1.544
				c-0.545-0.494-0.584-1.34-0.088-1.885c0.494-0.543,1.34-0.585,1.885-0.085c0.548,0.499,1.109,0.988,1.679,1.465
				c0.565,0.475,0.643,1.314,0.168,1.881C352.062,96.649,351.684,96.812,351.303,96.812z"/>
		</g>
	</g>
	<g>
		<path fill="#62C6D5" d="M42.712,116.401c-6.596,0-12.719-1.73-16.24-4.779c-2.277-1.967-3.471-4.463-3.449-7.218
			c0.04-6.044,7.269-9.542,13.444-10.698c3.608-0.677,7.439-0.793,11.715-0.359c9.259,0.941,18.748,4.315,27.922,7.58
			c1.263,0.45,2.514,0.895,3.758,1.329l-0.621,1.774l0.712,1.537c-8.381,3.879-19.542,8.569-31.527,10.401
			C46.517,116.263,44.596,116.401,42.712,116.401z M43.339,95.761c-2.242,0-4.354,0.189-6.381,0.568
			c-4.169,0.78-11.235,3.364-11.269,8.096c-0.013,1.975,0.838,3.716,2.525,5.179c3.908,3.381,12.053,4.91,19.808,3.729
			c10.758-1.647,20.898-5.691,28.864-9.297c-0.557-0.198-1.115-0.397-1.677-0.595c-9.025-3.212-18.359-6.53-27.298-7.438
			C46.325,95.841,44.803,95.761,43.339,95.761z"/>
	</g>
	<g>
		<path fill="#FECF0C" d="M79.952,105.567l-1.12-2.423c4.53-2.099,9.083-4.368,13.484-6.563c6.144-3.063,12.493-6.229,18.734-8.895
			c44.656-19.064,90.244-10.339,132.853,1.926c2.473,0.71,5.121,1.554,8.092,2.579l-0.868,2.521
			c-2.928-1.008-5.532-1.839-7.961-2.538c-42.135-12.129-87.18-20.771-131.066-2.035c-6.171,2.632-12.484,5.783-18.592,8.829
			C89.089,101.173,84.519,103.452,79.952,105.567z"/>
	</g>
	<g>
		<g>
			<path fill="#6852A2" d="M81.582,105.601c-0.143,0-0.289-0.023-0.432-0.074c-0.721-0.247-1.443-0.498-2.171-0.752
				c-0.695-0.242-1.062-1.005-0.816-1.7c0.242-0.695,1.003-1.062,1.698-0.818c0.722,0.255,1.44,0.503,2.153,0.748
				c0.697,0.239,1.068,0.998,0.829,1.693C82.654,105.252,82.136,105.601,81.582,105.601z"/>
		</g>
		<g>
			<path fill="#6852A2" d="M159.184,119c-0.734,0-1.332-1.021-1.334-1.754c-0.006-0.736,0.588-1.55,1.324-1.558
				c1.483-0.01,2.972-0.143,4.427-0.194c0.744-0.018,1.352,0.496,1.377,1.232c0.028,0.736-0.549,1.754-1.285,1.78
				C162.215,118.56,160.7,119,159.19,119H159.184z M153.232,119c-0.014,0-0.028,0-0.041,0c-1.474,0-2.985-0.57-4.492-0.65
				c-0.735-0.039-1.3-0.901-1.261-1.636c0.041-0.738,0.698-1.416,1.403-1.376c1.487,0.08,2.978,0.086,4.429,0.128
				c0.736,0.023,1.317,1.069,1.295,1.807C154.543,117.996,153.95,119,153.232,119z M169.588,117.717
				c-0.689,0-1.273-0.531-1.327-1.23c-0.06-0.733,0.489-1.373,1.225-1.434c1.474-0.114,2.951-0.258,4.396-0.422
				c0.73-0.084,1.394,0.441,1.477,1.171c0.085,0.733-0.441,1.396-1.174,1.48c-1.474,0.167-2.986,0.313-4.49,0.431
				C169.658,117.717,169.622,117.717,169.588,117.717z M142.835,117.481c-0.037,0-0.077-0.003-0.114-0.004
				c-1.286-0.107-2.547-0.225-3.779-0.349l-0.695-0.069c-0.731-0.074-1.264-0.729-1.189-1.465c0.078-0.732,0.737-1.265,1.467-1.188
				l0.679,0.068c1.221,0.121,2.469,0.235,3.74,0.343c0.733,0.059,1.278,0.705,1.219,1.439
				C144.102,116.952,143.519,117.481,142.835,117.481z M179.927,116.457c-0.642,0-1.205-0.46-1.313-1.112
				c-0.124-0.726,0.367-1.413,1.094-1.535c1.461-0.246,2.916-0.523,4.327-0.826c0.722-0.149,1.431,0.304,1.584,1.023
				c0.154,0.721-0.305,1.43-1.023,1.584c-1.452,0.312-2.946,0.596-4.444,0.849C180.074,116.452,180.001,116.457,179.927,116.457z
				 M132.471,116.401c-0.056,0-0.109-0.003-0.164-0.009c-1.483-0.184-2.968-0.377-4.447-0.583c-0.731-0.1-1.241-0.771-1.139-1.502
				c0.099-0.73,0.774-1.247,1.502-1.14c1.468,0.204,2.938,0.396,4.409,0.575c0.729,0.09,1.25,0.756,1.16,1.487
				C133.71,115.907,133.135,116.401,132.471,116.401z M122.154,114.953c-0.07,0-0.141-0.005-0.212-0.016
				c-1.476-0.233-2.95-0.477-4.425-0.73c-0.725-0.125-1.211-0.813-1.088-1.541c0.126-0.726,0.812-1.215,1.542-1.089
				c1.46,0.252,2.923,0.494,4.388,0.724c0.729,0.115,1.226,0.801,1.109,1.526C123.366,114.484,122.798,114.953,122.154,114.953z
				 M190.091,114.188c-0.582,0-1.116-0.383-1.282-0.97c-0.201-0.71,0.211-1.449,0.921-1.649c1.418-0.402,2.829-0.844,4.192-1.311
				c0.694-0.238,1.455,0.131,1.695,0.83c0.237,0.697-0.134,1.455-0.83,1.692c-1.407,0.484-2.866,0.939-4.332,1.354
				C190.336,114.17,190.213,114.188,190.091,114.188z M111.889,113.162c-0.083,0-0.166-0.008-0.252-0.023
				c-1.468-0.28-2.933-0.57-4.396-0.869c-0.724-0.148-1.189-0.854-1.042-1.575c0.147-0.723,0.856-1.183,1.575-1.039
				c1.453,0.296,2.907,0.584,4.363,0.864c0.725,0.139,1.198,0.837,1.061,1.56C113.074,112.719,112.516,113.162,111.889,113.162z
				 M101.685,111.05c-0.094,0-0.191-0.01-0.289-0.031c-1.458-0.323-2.914-0.658-4.37-0.999c-0.716-0.169-1.162-0.886-0.991-1.604
				c0.169-0.718,0.879-1.16,1.604-0.992c1.442,0.34,2.888,0.672,4.336,0.993c0.72,0.16,1.174,0.872,1.012,1.59
				C102.848,110.629,102.297,111.05,101.685,111.05z M91.548,108.645c-0.103,0-0.206-0.015-0.31-0.038l-0.126-0.03
				c-1.319-0.333-2.713-0.723-4.252-1.19c-0.706-0.214-1.104-0.959-0.89-1.662c0.214-0.709,0.963-1.101,1.662-0.891
				c1.5,0.452,2.854,0.833,4.137,1.156l0.088,0.022c0.716,0.172,1.157,0.89,0.986,1.606
				C92.697,108.23,92.152,108.645,91.548,108.645z"/>
		</g>
		<g>
			<path fill="#6852A2" d="M199.916,110.697c-0.517,0-1.006-0.299-1.225-0.8c-0.295-0.675,0.017-1.463,0.69-1.759
				c0.688-0.296,1.367-0.604,2.044-0.926c0.662-0.316,1.459-0.033,1.775,0.632c0.317,0.666,0.033,1.462-0.633,1.777
				c-0.7,0.333-1.409,0.654-2.121,0.964C200.275,110.66,200.094,110.697,199.916,110.697z"/>
		</g>
	</g>
	<g>
		<path fill="#F47920" d="M215.509,111.908c-5.572,0-11.13-0.707-15.961-2.164c-7.479-2.257-14.152-6.174-19.302-11.318
			c-6.214-6.208-10.168-14.975-10.85-24.047c-0.708-9.418,2.047-18.255,7.749-24.879c5.504-6.391,14.17-10.062,23.227-9.832
			c9.034,0.23,17.22,4.233,22.46,10.987c7.753,9.991,9.151,25.872,3.397,38.618c-4.194,9.297-13.486,15.237-21.064,19.076
			c10.799,1.981,23.741,0.684,31.923-3.459c5.975-3.023,10.837-7.103,14.874-12.471l2.131,1.605
			c-4.226,5.621-9.543,10.076-15.8,13.246C232.29,110.311,223.882,111.908,215.509,111.908z M199.565,42.323
			c-7.983,0-15.561,3.302-20.396,8.917c-10.624,12.333-9.267,33.077,2.964,45.299c4.838,4.838,11.127,8.52,18.188,10.651
			c0.415,0.124,0.835,0.243,1.263,0.359l-0.161-0.337c7.533-3.579,18.047-9.444,22.375-19.033c5.364-11.887,4.1-26.645-3.074-35.888
			c-4.748-6.118-12.189-9.747-20.42-9.96C200.056,42.326,199.81,42.323,199.565,42.323z"/>
	</g>
	<g>
		<path fill="#D83B95" d="M303.489,107.581c-4.279,0-8.477-0.271-12.586-0.816c-10.732-1.423-20.859-5.152-30.649-8.761
			c-2.986-1.1-6.073-2.235-9.127-3.291l0.868-2.521c3.08,1.064,6.184,2.205,9.181,3.31c9.655,3.557,19.64,7.236,30.077,8.619
			c15.14,2.007,31.545,0.202,48.771-5.358c3.119-1.007,6.404-2.55,9.88-4.184c8.677-4.072,18.509-8.69,27.527-4.979
			c3.219,1.327,5.298,3.604,5.702,6.245c0.375,2.455-0.753,4.914-3.173,6.93c-3.754,3.126-8.653,2.625-12.949,1.913
			c-5.396-0.898-10.766-3.483-15.967-7.695l-0.006,0.003c-3.556,1.669-6.915,3.246-10.194,4.304
			C327.896,105.48,315.381,107.581,303.489,107.581z M353.754,95.727c4.512,3.438,9.109,5.566,13.695,6.331
			c3.882,0.641,7.916,1.071,10.803-1.334c1.699-1.414,2.478-2.962,2.245-4.475c-0.254-1.671-1.782-3.233-4.081-4.181
			C369.318,89.146,361.473,92.173,353.754,95.727z"/>
	</g>
	<g>
		<path fill="#FFFFFF" d="M201.186,112.701c-2.128,0-3.858-1.729-3.858-3.855c0-2.128,1.73-3.859,3.858-3.859
			c2.129,0,3.86,1.731,3.86,3.859C205.046,110.972,203.314,112.701,201.186,112.701z"/>
		<path fill="#010101" d="M201.186,105.986c1.579,0,2.86,1.277,2.86,2.859c0,1.579-1.281,2.855-2.86,2.855
			c-1.578,0-2.858-1.276-2.858-2.855C198.327,107.264,199.607,105.986,201.186,105.986 M201.186,103.986
			c-2.679,0-4.858,2.18-4.858,4.859c0,2.678,2.18,4.855,4.858,4.855c2.68,0,4.86-2.178,4.86-4.855
			C206.046,106.166,203.865,103.986,201.186,103.986L201.186,103.986z"/>
	</g>
	<g>
		<path fill="#FFFFFF" d="M350.594,98.982c-2.128,0-3.858-1.73-3.858-3.857c0-2.129,1.73-3.86,3.858-3.86s3.858,1.731,3.858,3.86
			C354.452,97.252,352.722,98.982,350.594,98.982z"/>
		<path fill="#010101" d="M350.594,92.265c1.58,0,2.858,1.28,2.858,2.86c0,1.577-1.278,2.857-2.858,2.857
			c-1.577,0-2.858-1.28-2.858-2.857C347.735,93.545,349.017,92.265,350.594,92.265 M350.594,90.265c-2.679,0-4.858,2.181-4.858,4.86
			c0,2.679,2.18,4.857,4.858,4.857s4.858-2.179,4.858-4.857C355.452,92.445,353.272,90.265,350.594,90.265L350.594,90.265z"/>
	</g>
	<g>
		<path fill="#FFFFFF" d="M252.261,96.692c-2.128,0-3.858-1.729-3.858-3.854c0-2.128,1.73-3.858,3.858-3.858
			c2.127,0,3.857,1.73,3.857,3.858C256.118,94.963,254.388,96.692,252.261,96.692z"/>
		<path fill="#010101" d="M252.261,89.979c1.578,0,2.857,1.277,2.857,2.858c0,1.579-1.279,2.854-2.857,2.854
			c-1.581,0-2.858-1.275-2.858-2.854C249.402,91.257,250.68,89.979,252.261,89.979 M252.261,87.979c-2.679,0-4.858,2.18-4.858,4.858
			c0,2.677,2.18,4.854,4.858,4.854s4.857-2.178,4.857-4.854C257.118,90.159,254.939,87.979,252.261,87.979L252.261,87.979z"/>
	</g>
	<g>
		<path fill="#FFFFFF" d="M80.745,107.366c-2.128,0-3.859-1.73-3.859-3.857c0-2.128,1.731-3.858,3.859-3.858s3.858,1.73,3.858,3.858
			C84.604,105.636,82.873,107.366,80.745,107.366z"/>
		<path fill="#010101" d="M80.745,100.65c1.58,0,2.858,1.28,2.858,2.858s-1.278,2.857-2.858,2.857c-1.579,0-2.859-1.279-2.859-2.857
			S79.166,100.65,80.745,100.65 M80.745,98.65c-2.68,0-4.859,2.18-4.859,4.858s2.18,4.857,4.859,4.857
			c2.679,0,4.858-2.179,4.858-4.857S83.424,98.65,80.745,98.65L80.745,98.65z"/>
	</g>
</g>
</svg>
