<?xml version="1.0" encoding="utf-8"?>
<!-- Generator: Adobe Illustrator 16.0.4, SVG Export Plug-In . SVG Version: 6.00 Build 0)  -->
<!DOCTYPE svg PUBLIC "-//W3C//DTD SVG 1.1//EN" "http://www.w3.org/Graphics/SVG/1.1/DTD/svg11.dtd">
<svg version="1.1" id="Layer_1" xmlns="http://www.w3.org/2000/svg" xmlns:xlink="http://www.w3.org/1999/xlink" x="0px" y="0px"
	 width="30px" height="30px" viewBox="0 0 30 30" enable-background="new 0 0 30 30" xml:space="preserve">
<g opacity="0.4">
	<g>
		<defs>
			<path id="SVGID_3_" d="M4.301,7.2v16.497c0,1.824,1.481,3.303,3.3,3.303c1.823,0,3.299-1.472,3.299-3.303V7.2H4.301z"/>
		</defs>
		<clipPath id="SVGID_2_">
			<use xlink:href="#SVGID_3_"  overflow="visible"/>
		</clipPath>
		<g clip-path="url(#SVGID_2_)">
			<rect x="1.301" y="4.2" fill="#D8D9D8" width="12.599" height="25.8"/>
		</g>
	</g>
	<g>
		<path fill="#535454" d="M7.601,28c-2.371,0-4.3-1.931-4.3-4.303V7.2c0-0.553,0.447-1,1-1h6.599c0.553,0,1,0.447,1,1v16.497
			C11.899,26.069,9.972,28,7.601,28z M5.301,8.2v15.497c0,1.27,1.031,2.303,2.3,2.303c1.268,0,2.299-1.033,2.299-2.303V8.2H5.301z"
			/>
	</g>
	<g>
		<path fill="#535454" d="M10.899,8.2H4.301c-0.553,0-1-0.447-1-1V3c0-0.553,0.447-1,1-1h6.599c0.553,0,1,0.447,1,1v4.2
			C11.899,7.753,11.452,8.2,10.899,8.2z M5.301,6.2h4.599V4H5.301V6.2z"/>
	</g>
	<g>
		<g>
			<path fill="#535454" d="M19.101,4.5c-0.553,0-1-0.447-1-1V3c0-0.553,0.447-1,1-1s1,0.447,1,1v0.5
				C20.101,4.053,19.653,4.5,19.101,4.5z"/>
		</g>
		<g>
			<path fill="#535454" d="M22.399,28c-0.231,0-0.459-0.019-0.682-0.055c-0.545-0.087-0.916-0.6-0.829-1.146
				c0.087-0.545,0.604-0.919,1.146-0.829c0.234,0.036,0.486,0.039,0.721,0.003c0.557-0.085,1.056,0.291,1.141,0.836
				c0.084,0.546-0.29,1.057-0.836,1.141C22.845,27.983,22.625,28,22.399,28z M25.659,25.232c-0.054,0-0.109-0.004-0.163-0.013
				c-0.544-0.089-0.915-0.603-0.827-1.148c0.021-0.121,0.031-0.246,0.031-0.374v-0.498c0-0.553,0.447-1,1-1s1,0.447,1,1v0.498
				c0,0.237-0.02,0.47-0.056,0.696C26.564,24.884,26.14,25.232,25.659,25.232z M19.14,25.212c-0.484,0-0.909-0.352-0.988-0.845
				c-0.033-0.219-0.051-0.442-0.051-0.67v-0.519c0-0.553,0.447-1,1-1s1,0.447,1,1v0.519c0,0.122,0.01,0.242,0.028,0.359
				c0.085,0.546-0.287,1.058-0.833,1.144C19.243,25.208,19.191,25.212,19.14,25.212z M25.7,20.056c-0.553,0-1-0.447-1-1v-1.035
				c0-0.553,0.447-1,1-1s1,0.447,1,1v1.035C26.7,19.608,26.253,20.056,25.7,20.056z M19.101,20.036c-0.553,0-1-0.447-1-1V18
				c0-0.553,0.447-1,1-1s1,0.447,1,1v1.036C20.101,19.589,19.653,20.036,19.101,20.036z M25.7,14.877c-0.553,0-1-0.447-1-1v-1.035
				c0-0.553,0.447-1,1-1s1,0.447,1,1v1.035C26.7,14.43,26.253,14.877,25.7,14.877z M19.101,14.857c-0.553,0-1-0.447-1-1v-1.036
				c0-0.553,0.447-1,1-1s1,0.447,1,1v1.036C20.101,14.41,19.653,14.857,19.101,14.857z M25.7,9.698c-0.553,0-1-0.447-1-1V7.663
				c0-0.553,0.447-1,1-1s1,0.447,1,1v1.035C26.7,9.251,26.253,9.698,25.7,9.698z M19.101,9.679c-0.553,0-1-0.447-1-1V7.643
				c0-0.553,0.447-1,1-1s1,0.447,1,1v1.036C20.101,9.231,19.653,9.679,19.101,9.679z"/>
		</g>
		<g>
			<path fill="#535454" d="M25.7,4.5c-0.553,0-1-0.447-1-1V3c0-0.553,0.447-1,1-1s1,0.447,1,1v0.5C26.7,4.053,26.253,4.5,25.7,4.5z"
				/>
		</g>
	</g>
	<g>
		<rect x="9.899" y="11.6" fill="#535454" width="9" height="2"/>
	</g>
	<g>
		<rect x="2.101" y="2" fill="#535454" width="11" height="2"/>
	</g>
	<g>
		<g>
			<path fill="#535454" d="M18.399,4h-0.5c-0.552,0-1-0.447-1-1s0.448-1,1-1h0.5c0.553,0,1,0.447,1,1S18.952,4,18.399,4z"/>
		</g>
		<g>
			<path fill="#535454" d="M22.845,4h-0.889c-0.553,0-1-0.447-1-1s0.447-1,1-1h0.889c0.553,0,1,0.447,1,1S23.397,4,22.845,4z"/>
		</g>
		<g>
			<path fill="#535454" d="M26.899,4h-0.5c-0.552,0-1-0.447-1-1s0.448-1,1-1h0.5c0.553,0,1,0.447,1,1S27.452,4,26.899,4z"/>
		</g>
	</g>
</g>
</svg>
