<svg xmlns="http://www.w3.org/2000/svg" width="121" height="121" viewBox="0 0 121 121"><path fill="#5C8942" d="M52.71 37c-2.46 0-4.462-2.005-4.462-4.47V15.4c0-.575.463-1.04 1.037-1.04h6.854c.573 0 1.038.465 1.038 1.04v17.13c0 2.465-2.004 4.47-4.467 4.47zm-2.386-20.562V32.53c0 1.322 1.07 2.393 2.387 2.393 1.32 0 2.392-1.07 2.392-2.393V16.438h-4.778z"/><path fill="#5C8942" d="M56.14 16.438h-6.855c-.574 0-1.037-.464-1.037-1.037v-4.36c0-.575.463-1.04 1.037-1.04h6.854c.573 0 1.038.465 1.038 1.04v4.36c0 .574-.465 1.038-1.04 1.038zm-5.816-2.077H55.1v-2.283h-4.776v2.284zM64.86 13.023c-.573 0-1.038-.464-1.038-1.038v-.52c0-.574.465-1.038 1.04-1.038s1.036.464 1.036 1.04v.518c0 .575-.462 1.038-1.037 1.038zM68.29 37c-.243 0-.48-.02-.712-.057-.566-.092-.95-.624-.86-1.19.09-.565.628-.952 1.19-.86.242.035.504.04.748.003.578-.088 1.096.304 1.184.867.086.568-.3 1.1-.867 1.186-.223.03-.452.05-.684.05zm3.382-2.875c-.055 0-.11-.003-.168-.014-.566-.09-.953-.622-.86-1.19.02-.127.032-.255.032-.39v-.516c0-.574.463-1.038 1.04-1.038.573 0 1.036.464 1.036 1.038v.515c0 .248-.02.488-.057.725-.082.508-.525.87-1.023.87zm-6.772-.02c-.502 0-.94-.366-1.023-.877-.037-.23-.055-.458-.055-.698v-.536c0-.575.465-1.038 1.04-1.038s1.036.463 1.036 1.038v.536c0 .128.012.253.03.376.087.565-.298 1.097-.864 1.188-.056.007-.107.01-.164.01zm6.815-5.355c-.576 0-1.04-.463-1.04-1.038v-1.075c0-.575.464-1.037 1.04-1.037.574 0 1.037.462 1.037 1.037v1.075c0 .575-.463 1.038-1.037 1.038zm-6.854-.022c-.573 0-1.038-.462-1.038-1.036v-1.077c0-.574.465-1.036 1.04-1.036s1.036.46 1.036 1.035v1.077c0 .574-.462 1.036-1.037 1.036zm6.855-5.357c-.576 0-1.04-.464-1.04-1.038v-1.074c0-.574.464-1.038 1.04-1.038.574 0 1.037.464 1.037 1.038v1.074c0 .574-.463 1.04-1.037 1.04zm-6.854-.018c-.573 0-1.038-.464-1.038-1.04v-1.075c0-.573.465-1.037 1.04-1.037s1.036.464 1.036 1.037v1.076c0 .575-.462 1.04-1.037 1.04zm6.855-5.36c-.576 0-1.04-.464-1.04-1.037V15.88c0-.573.464-1.038 1.04-1.038.574 0 1.037.465 1.037 1.038v1.075c0 .573-.463 1.038-1.037 1.038zm-6.854-.018c-.573 0-1.038-.464-1.038-1.04V15.86c0-.574.465-1.038 1.04-1.038s1.036.464 1.036 1.037v1.075c0 .575-.462 1.04-1.037 1.04zM71.715 13.023c-.576 0-1.04-.464-1.04-1.038v-.52c0-.574.464-1.038 1.04-1.038.574 0 1.037.464 1.037 1.04v.518c0 .575-.463 1.038-1.037 1.038z"/><path fill="#5C8942" d="M55.102 20.914h9.55v2.077h-9.55zM47 10h11.424v2.077H47zM64.86 12.077h-1.245c-.574 0-1.037-.466-1.037-1.04 0-.573.463-1.037 1.037-1.037h1.244c.573 0 1.036.464 1.036 1.038 0 .573-.462 1.04-1.037 1.04zM68.75 12.077h-.924c-.574 0-1.04-.466-1.04-1.04 0-.573.466-1.037 1.04-1.037h.924c.572 0 1.037.464 1.037 1.038 0 .573-.465 1.04-1.037 1.04zM72.96 12.077h-1.245c-.574 0-1.04-.466-1.04-1.04 0-.573.466-1.037 1.04-1.037h1.246c.575 0 1.04.464 1.04 1.038 0 .573-.465 1.04-1.04 1.04z"/><g><path fill="#5C8942" d="M111 14.51c0-2.492-2.018-4.51-4.503-4.51-2.488 0-4.508 2.018-4.508 4.51 0 2.105 1.438 3.87 3.386 4.37v3.505h-3.472c-.504-1.966-2.273-3.417-4.39-3.417-2.114 0-3.885 1.45-4.388 3.417h-5.81v5.8c-1.91.51-3.316 2.252-3.316 4.33C84 34.988 86.002 37 88.474 37c2.473 0 4.48-2.012 4.48-4.485 0-2.102-1.445-3.862-3.39-4.35v-3.53h3.565c.5 1.96 2.272 3.416 4.384 3.416 2.117 0 3.885-1.454 4.39-3.415h5.717v-5.76c1.942-.5 3.38-2.26 3.38-4.364zM90.717 32.516c0 1.232-1 2.236-2.234 2.236-1.23 0-2.238-1.003-2.238-2.235 0-1.234 1.008-2.238 2.238-2.238 1.234 0 2.234 1.003 2.234 2.238zm-1.143-3.238zm7.965-3.48c-1.26 0-2.288-1.024-2.288-2.29 0-1.262 1.027-2.29 2.287-2.29 1.263 0 2.29 1.028 2.29 2.29 0 1.265-1.027 2.29-2.29 2.29zm9-9.023c-1.25 0-2.265-1.017-2.265-2.264s1.014-2.263 2.264-2.263c1.247 0 2.26 1.016 2.26 2.263s-1.013 2.264-2.26 2.264zM89.658 29.277"/></g><g><path fill-rule="evenodd" clip-rule="evenodd" fill="#5C8942" d="M37 14.936c0-.163-.01-.32-.04-.485-.173-.862-.896-1.515-1.753-1.527-1.04-.02-3.886-.002-4.927-.01-.147 0-.204.047-.202.2.005.51.007 1.014 0 1.522-.003.17.078.184.21.184.76-.007 3.324-.004 4.082 0 .553 0 .78.226.78.782v18.73c-.003.525-.235.766-.745.766h-21.81c-.505 0-.74-.24-.742-.765v-18.73c0-.558.227-.784.78-.784.758-.004 3.323-.007 4.08 0 .133 0 .216-.016.21-.185-.008-.51-.005-1.014 0-1.523 0-.152-.053-.198-.202-.198-1.04.007-3.886-.01-4.926.01-.858.012-1.58.664-1.75 1.527-.034.165-.044.322-.044.486v20.067c0 .724.277 1.29.863 1.7.206.144.446.197.67.297h23.934c.223-.1.465-.153.67-.296.585-.41.863-.977.863-1.7V14.935z"/><path fill-rule="evenodd" clip-rule="evenodd" fill="#5C8942" d="M23.83 10c.65.247 1.105.662 1.19 1.394.018.182.155.124.25.124.625.005 1.256 0 1.884.002.708.004 1.164.444 1.167 1.147.01.75.007 1.5.002 2.25-.003.364-.087.45-.444.454h-8.762c-.356-.002-.44-.087-.442-.454-.002-.752-.005-1.5 0-2.25.006-.702.458-1.143 1.17-1.146.626-.002 1.254.003 1.883-.002.096 0 .233.058.25-.124.084-.73.54-1.146 1.19-1.394h.664zm.383 1.528c.006-.375-.333-.72-.71-.722-.376-.005-.72.338-.715.717 0 .365.324.697.692.71.374.01.725-.328.733-.705zM23.877 23.365H17.04c-.302 0-.425-.33-.368-.934.033-.336.117-.547.28-.547h12.701c.185 0 .375-.042.434.498.067.647-.057.984-.373.984h-5.837zM23.873 18.036h5.835c.307 0 .404.227.384.85-.015.406-.104.637-.295.624-.044 0-.09.004-.135.004-3.853 0-8.71-.004-12.564 0-.203.01-.388-.008-.427-.58-.042-.61.08-.897.393-.897h6.81zM20.778 27.21c-.906 0-2.813-.006-3.717.01-.232 0-.395-.106-.395-.71-.003-.563.104-.78.4-.78 1.808 0 4.622.005 6.43-.004.235 0 .393.143.396.73.007.576-.083.755-.4.755-.903.005-1.808 0-2.712 0z"/></g><g><path fill="#9A2F41" d="M52.71 74c-2.46 0-4.462-2.004-4.462-4.47V52.4c0-.574.463-1.04 1.037-1.04h6.854c.573 0 1.038.466 1.038 1.04v17.13c0 2.466-2.004 4.47-4.467 4.47zm-2.386-20.562V69.53c0 1.322 1.07 2.393 2.387 2.393 1.32 0 2.392-1.07 2.392-2.393V53.438h-4.778z"/><path fill="#9A2F41" d="M56.14 53.438h-6.855c-.574 0-1.037-.463-1.037-1.037v-4.36c0-.574.463-1.04 1.037-1.04h6.854c.573 0 1.038.466 1.038 1.04v4.36c0 .575-.465 1.038-1.04 1.038zm-5.816-2.077H55.1V49.08h-4.776v2.283zM64.86 50.023c-.573 0-1.038-.463-1.038-1.037v-.52c0-.574.465-1.04 1.04-1.04s1.036.466 1.036 1.04v.52c0 .575-.462 1.037-1.037 1.037zM68.29 74c-.243 0-.48-.02-.712-.057-.566-.092-.95-.623-.86-1.19.09-.565.628-.952 1.19-.86.242.035.504.04.748.004.578-.088 1.096.303 1.184.867.086.568-.3 1.098-.867 1.186-.223.032-.452.05-.684.05zm3.382-2.875c-.055 0-.11-.002-.168-.014-.566-.09-.953-.622-.86-1.19.02-.127.032-.254.032-.39v-.515c0-.574.463-1.04 1.04-1.04.573 0 1.036.466 1.036 1.04v.514c0 .25-.02.49-.057.726-.082.508-.525.87-1.023.87zm-6.772-.02c-.502 0-.94-.366-1.023-.876-.037-.23-.055-.46-.055-.7v-.536c0-.576.465-1.04 1.04-1.04s1.036.464 1.036 1.04v.535c0 .128.012.253.03.376.087.564-.298 1.096-.864 1.188-.056.008-.107.01-.164.01zm6.815-5.355c-.576 0-1.04-.463-1.04-1.037v-1.076c0-.574.464-1.037 1.04-1.037.574 0 1.037.463 1.037 1.037v1.076c0 .574-.463 1.037-1.037 1.037zm-6.854-.02c-.573 0-1.038-.464-1.038-1.038v-1.076c0-.574.465-1.037 1.04-1.037s1.036.462 1.036 1.036v1.076c0 .574-.462 1.037-1.037 1.037zm6.855-5.36c-.576 0-1.04-.464-1.04-1.038v-1.074c0-.574.464-1.037 1.04-1.037.574 0 1.037.464 1.037 1.038v1.074c0 .574-.463 1.04-1.037 1.04zm-6.854-.018c-.573 0-1.038-.463-1.038-1.04v-1.075c0-.572.465-1.037 1.04-1.037s1.036.465 1.036 1.037v1.076c0 .576-.462 1.04-1.037 1.04zm6.855-5.358c-.576 0-1.04-.465-1.04-1.04v-1.073c0-.573.464-1.038 1.04-1.038.574 0 1.037.465 1.037 1.04v1.073c0 .574-.463 1.04-1.037 1.04zm-6.854-.02c-.573 0-1.038-.464-1.038-1.038V52.86c0-.574.465-1.037 1.04-1.037s1.036.463 1.036 1.037v1.076c0 .574-.462 1.04-1.037 1.04zM71.715 50.023c-.576 0-1.04-.463-1.04-1.037v-.52c0-.574.464-1.04 1.04-1.04.574 0 1.037.466 1.037 1.04v.52c0 .575-.463 1.037-1.037 1.037z"/><path fill="#9A2F41" d="M55.102 57.914h9.55v2.078h-9.55z"/><g><path fill="#9A2F41" d="M47 47h11.424v2.078H47z"/></g><g><path fill="#9A2F41" d="M64.86 49.078h-1.245c-.574 0-1.037-.467-1.037-1.04S63.04 47 63.615 47h1.244c.573 0 1.036.465 1.036 1.04 0 .57-.462 1.038-1.037 1.038zM68.75 49.078h-.924c-.574 0-1.04-.467-1.04-1.04S67.253 47 67.827 47h.924c.572 0 1.037.465 1.037 1.04 0 .57-.465 1.038-1.037 1.038zM72.96 49.078h-1.245c-.574 0-1.04-.467-1.04-1.04S71.142 47 71.716 47h1.246c.575 0 1.04.465 1.04 1.04 0 .57-.465 1.038-1.04 1.038z"/></g></g><g><path fill="#9A2F41" d="M111 51.512c0-2.494-2.018-4.512-4.503-4.512-2.488 0-4.508 2.018-4.508 4.512 0 2.104 1.438 3.87 3.386 4.37v3.503h-3.472c-.504-1.965-2.273-3.416-4.39-3.416-2.114 0-3.885 1.45-4.388 3.415h-5.81v5.8c-1.91.51-3.316 2.253-3.316 4.33C84 71.99 86.002 74 88.474 74c2.473 0 4.48-2.012 4.48-4.484 0-2.102-1.445-3.863-3.39-4.352v-3.53h3.565c.5 1.962 2.272 3.417 4.384 3.417 2.117 0 3.885-1.454 4.39-3.415h5.717v-5.76c1.942-.5 3.38-2.26 3.38-4.363zM90.717 69.516c0 1.232-1 2.236-2.234 2.236-1.23 0-2.238-1.004-2.238-2.236 0-1.234 1.008-2.238 2.238-2.238 1.234 0 2.234 1.003 2.234 2.238zm-1.143-3.24zm7.965-3.48c-1.26 0-2.288-1.022-2.288-2.288 0-1.262 1.027-2.29 2.287-2.29 1.263 0 2.29 1.028 2.29 2.29 0 1.265-1.027 2.29-2.29 2.29zm9-9.02c-1.25 0-2.265-1.02-2.265-2.265 0-1.247 1.014-2.263 2.264-2.263 1.247 0 2.26 1.016 2.26 2.264 0 1.248-1.013 2.265-2.26 2.265zM89.658 66.277"/></g><g><path fill-rule="evenodd" clip-rule="evenodd" fill="#9A2F41" d="M37 51.936c0-.162-.01-.32-.04-.484-.173-.863-.896-1.516-1.753-1.53-1.04-.017-3.886 0-4.927-.007-.147 0-.204.045-.202.197.005.51.007 1.016 0 1.523-.003.17.078.184.21.184.76-.007 3.324-.003 4.082 0 .553 0 .78.226.78.782v18.732c-.003.523-.235.764-.745.764h-21.81c-.505 0-.74-.24-.742-.764V52.602c0-.557.227-.783.78-.783.758-.003 3.323-.007 4.08 0 .133 0 .216-.015.21-.185-.008-.508-.005-1.014 0-1.523 0-.152-.053-.197-.202-.197-1.04.006-3.886-.01-4.926.008-.858.014-1.58.666-1.75 1.53-.034.162-.044.32-.044.483v20.068c0 .723.277 1.29.863 1.7.206.144.446.196.67.296h23.934c.223-.1.465-.152.67-.295.585-.41.863-.978.863-1.7v-20.07z"/><path fill-rule="evenodd" clip-rule="evenodd" fill="#9A2F41" d="M23.83 47c.65.248 1.105.662 1.19 1.395.018.182.155.123.25.123.625.006 1.256 0 1.884.002.708.004 1.164.445 1.167 1.148.01.75.007 1.5.002 2.248-.003.365-.087.453-.444.455h-8.762c-.356 0-.44-.087-.442-.454-.002-.752-.005-1.5 0-2.248.006-.703.458-1.145 1.17-1.148.626-.002 1.254.004 1.883-.002.096 0 .233.06.25-.123.084-.732.54-1.146 1.19-1.395h.664zm.383 1.53c.006-.376-.333-.722-.71-.724-.376-.004-.72.338-.715.717 0 .365.324.697.692.71.374.01.725-.327.733-.704zM23.877 60.365H17.04c-.302 0-.425-.33-.368-.934.033-.335.117-.546.28-.546h12.701c.185 0 .375-.043.434.498.067.646-.057.982-.373.982h-5.837zM23.873 55.037h5.835c.307 0 .404.227.384.85-.015.406-.104.637-.295.623-.044 0-.09.004-.135.004-3.853 0-8.71-.004-12.564 0-.203.01-.388-.008-.427-.58-.042-.61.08-.896.393-.896h6.81zM20.778 64.21c-.906 0-2.813-.005-3.717.01-.232 0-.395-.106-.395-.71-.003-.562.104-.78.4-.78 1.808 0 4.622.005 6.43-.003.235 0 .393.143.396.73.007.576-.083.754-.4.754-.903.005-1.808 0-2.712 0z"/></g><g><path fill="#CCC" d="M52.71 111c-2.46 0-4.462-2.004-4.462-4.47V89.4c0-.574.463-1.04 1.037-1.04h6.854c.573 0 1.038.466 1.038 1.04v17.13c0 2.466-2.004 4.47-4.467 4.47zm-2.386-20.562v16.092c0 1.322 1.07 2.393 2.387 2.393 1.32 0 2.392-1.07 2.392-2.393V90.438h-4.778z"/><path fill="#CCC" d="M56.14 90.438h-6.855c-.574 0-1.037-.463-1.037-1.037v-4.36c0-.574.463-1.04 1.037-1.04h6.854c.573 0 1.038.466 1.038 1.04v4.36c0 .575-.465 1.038-1.04 1.038zm-5.816-2.077H55.1V86.08h-4.776v2.283zM64.86 87.023c-.573 0-1.038-.463-1.038-1.037v-.52c0-.574.465-1.04 1.04-1.04s1.036.466 1.036 1.04v.52c0 .575-.462 1.037-1.037 1.037zM68.29 111c-.243 0-.48-.02-.712-.057-.566-.092-.95-.623-.86-1.19.09-.565.628-.952 1.19-.86.242.035.504.04.748.004.578-.088 1.096.303 1.184.867.086.568-.3 1.098-.867 1.186-.223.032-.452.05-.684.05zm3.382-2.875c-.055 0-.11-.002-.168-.014-.566-.09-.953-.622-.86-1.19.02-.127.032-.254.032-.39v-.515c0-.574.463-1.04 1.04-1.04.573 0 1.036.466 1.036 1.04v.514c0 .25-.02.49-.057.726-.082.508-.525.87-1.023.87zm-6.772-.02c-.502 0-.94-.366-1.023-.876-.037-.23-.055-.46-.055-.7v-.535c0-.576.465-1.04 1.04-1.04s1.036.464 1.036 1.04v.535c0 .13.012.254.03.377.087.564-.298 1.096-.864 1.188-.056.007-.107.01-.164.01zm6.815-5.355c-.576 0-1.04-.463-1.04-1.037v-1.076c0-.574.464-1.037 1.04-1.037.574 0 1.037.463 1.037 1.037v1.076c0 .574-.463 1.037-1.037 1.037zm-6.854-.02c-.573 0-1.038-.464-1.038-1.038v-1.076c0-.574.465-1.037 1.04-1.037s1.036.462 1.036 1.036v1.076c0 .574-.462 1.037-1.037 1.037zm6.855-5.36c-.576 0-1.04-.464-1.04-1.038v-1.074c0-.574.464-1.037 1.04-1.037.574 0 1.037.464 1.037 1.038v1.074c0 .574-.463 1.04-1.037 1.04zm-6.854-.018c-.573 0-1.038-.463-1.038-1.04v-1.075c0-.572.465-1.037 1.04-1.037s1.036.465 1.036 1.037v1.076c0 .576-.462 1.04-1.037 1.04zm6.855-5.358c-.576 0-1.04-.465-1.04-1.04v-1.073c0-.573.464-1.038 1.04-1.038.574 0 1.037.465 1.037 1.04v1.073c0 .574-.463 1.04-1.037 1.04zm-6.854-.02c-.573 0-1.038-.464-1.038-1.038V89.86c0-.574.465-1.037 1.04-1.037s1.036.463 1.036 1.037v1.076c0 .574-.462 1.04-1.037 1.04zM71.715 87.023c-.576 0-1.04-.463-1.04-1.037v-.52c0-.574.464-1.04 1.04-1.04.574 0 1.037.466 1.037 1.04v.52c0 .575-.463 1.037-1.037 1.037z"/><path fill="#CCC" d="M55.102 94.914h9.55v2.078h-9.55z"/><g><path fill="#CCC" d="M47 84h11.424v2.078H47z"/></g><g><path fill="#CCC" d="M64.86 86.078h-1.245c-.574 0-1.037-.467-1.037-1.04S63.04 84 63.615 84h1.244c.573 0 1.036.465 1.036 1.04 0 .57-.462 1.038-1.037 1.038zM68.75 86.078h-.924c-.574 0-1.04-.467-1.04-1.04S67.253 84 67.827 84h.924c.572 0 1.037.465 1.037 1.04 0 .57-.465 1.038-1.037 1.038zM72.96 86.078h-1.245c-.574 0-1.04-.467-1.04-1.04S71.142 84 71.716 84h1.246c.575 0 1.04.465 1.04 1.04 0 .57-.465 1.038-1.04 1.038z"/></g></g><g><path fill="#CCC" d="M111 88.512c0-2.494-2.018-4.512-4.503-4.512-2.488 0-4.508 2.018-4.508 4.512 0 2.104 1.438 3.87 3.386 4.37v3.503h-3.472c-.504-1.965-2.273-3.416-4.39-3.416-2.114 0-3.885 1.45-4.388 3.415h-5.81v5.8c-1.912.51-3.317 2.253-3.317 4.33 0 2.474 2 4.485 4.473 4.485s4.48-2.012 4.48-4.484c0-2.102-1.445-3.863-3.39-4.352v-3.53h3.565c.5 1.962 2.273 3.417 4.385 3.417 2.117 0 3.885-1.454 4.39-3.415h5.717v-5.76c1.942-.5 3.38-2.26 3.38-4.363zm-20.283 18.004c0 1.232-1 2.236-2.234 2.236-1.23 0-2.238-1.004-2.238-2.236 0-1.234 1.008-2.238 2.238-2.238 1.234 0 2.234 1.003 2.234 2.238zm-1.143-3.24zm7.965-3.48c-1.26 0-2.288-1.022-2.288-2.288 0-1.262 1.027-2.29 2.287-2.29 1.263 0 2.29 1.028 2.29 2.29 0 1.265-1.027 2.29-2.29 2.29zm9-9.02c-1.25 0-2.265-1.02-2.265-2.265 0-1.247 1.014-2.263 2.264-2.263 1.247 0 2.26 1.016 2.26 2.264 0 1.248-1.013 2.265-2.26 2.265zM89.658 103.277"/></g><g><path fill-rule="evenodd" clip-rule="evenodd" fill="#CCC" d="M37 88.936c0-.162-.01-.32-.04-.484-.173-.863-.896-1.516-1.753-1.53-1.04-.017-3.886 0-4.927-.007-.147 0-.204.045-.202.197.005.51.007 1.016 0 1.523-.003.17.078.184.21.184.76-.007 3.324-.003 4.082 0 .553 0 .78.226.78.782v18.732c-.003.523-.235.764-.745.764h-21.81c-.505 0-.74-.24-.742-.764V89.602c0-.557.227-.783.78-.783.758-.003 3.323-.007 4.08 0 .133 0 .216-.015.21-.185-.008-.508-.005-1.014 0-1.523 0-.152-.053-.197-.202-.197-1.04.006-3.886-.01-4.926.008-.858.014-1.58.666-1.75 1.53-.034.162-.044.32-.044.483v20.068c0 .723.277 1.29.863 1.7.206.144.446.196.67.296h23.934c.223-.1.465-.152.67-.295.586-.41.863-.98.863-1.7v-20.07z"/><path fill-rule="evenodd" clip-rule="evenodd" fill="#CCC" d="M23.83 84c.65.248 1.105.662 1.19 1.395.018.182.155.123.25.123.625.006 1.256 0 1.884.002.708.004 1.164.445 1.167 1.148.01.75.007 1.5.002 2.248-.003.365-.087.453-.444.455h-8.762c-.356 0-.44-.087-.442-.454-.002-.752-.005-1.5 0-2.248.006-.703.458-1.145 1.17-1.148.626-.002 1.254.004 1.883-.002.096 0 .233.06.25-.123.084-.732.54-1.146 1.19-1.395h.664zm.383 1.53c.006-.376-.333-.722-.71-.724-.376-.004-.72.338-.715.717 0 .365.324.697.692.71.374.01.725-.327.733-.704zM23.877 97.365H17.04c-.302 0-.425-.33-.368-.934.033-.335.117-.546.28-.546h12.701c.185 0 .375-.043.434.498.067.646-.057.982-.373.982h-5.837zM23.873 92.037h5.835c.307 0 .404.227.384.85-.015.406-.104.637-.295.623-.044 0-.09.004-.135.004-3.853 0-8.71-.004-12.564 0-.203.01-.388-.008-.427-.58-.042-.61.08-.896.393-.896h6.81zM20.778 101.21c-.906 0-2.813-.005-3.717.01-.232 0-.395-.106-.395-.71-.003-.562.104-.78.4-.78 1.808 0 4.622.005 6.43-.003.235 0 .393.143.396.73.007.576-.083.754-.4.754-.903.005-1.808 0-2.712 0z"/></g></svg>