<?xml version="1.0" encoding="utf-8"?>
<!-- Generator: Adobe Illustrator 16.0.4, SVG Export Plug-In . SVG Version: 6.00 Build 0)  -->
<!DOCTYPE svg PUBLIC "-//W3C//DTD SVG 1.1//EN" "http://www.w3.org/Graphics/SVG/1.1/DTD/svg11.dtd">
<svg version="1.1" id="Layer_1" xmlns="http://www.w3.org/2000/svg" xmlns:xlink="http://www.w3.org/1999/xlink" x="0px" y="0px"
	 width="210px" height="210px" viewBox="535 -5 210 210" enable-background="new 535 -5 210 210" xml:space="preserve">
<g>
	<path id="XMLID_13_" fill="#67A53F" d="M550.25,52.333h39.5c0.781-0.146,0.833-0.333,1.167-0.5c1-0.666,1.5-1.666,1.5-2.833V15
		c-0.167-1.333-1.334-2.5-2.834-2.5h-8.166c-0.167,0-0.334,0-0.334,0.333v2.5c0,0.334,0.167,0.334,0.334,0.334h6.666
		c1,0,1.334,0.333,1.334,1.333v31c0,1-0.334,1.333-1.167,1.333h-36.5c-0.833,0-1.167-0.333-1.167-1.333V17
		c0-1,0.334-1.333,1.334-1.333h6.666c0.167,0,0.334,0,0.334-0.334v-2.5c0-0.333-0.167-0.333-0.334-0.333h-8.166
		c-1.5,0-2.667,1.167-2.834,2.5v34c0,1.167,0.5,2.167,1.5,2.833C549.417,52,549.578,52.234,550.25,52.333z"/>
	<g id="XMLID_10_">
		<g id="XMLID_11_">
			<path id="XMLID_12_" fill="#67A53F" d="M570.083,7.667c1.167,0.5,1.834,1.166,2,2.333c0,0.333,0.334,0.167,0.334,0.167h3.166
				c1.167,0,2,0.666,2,1.833v3.667c0,0.666-0.166,0.666-0.666,0.833h-14.5c-0.667,0-0.667-0.167-0.667-0.833V12
				c0-1.167,0.833-1.833,2-1.833h3.167c0.166,0,0.333,0.166,0.333-0.167c0.167-1.167,0.833-1.833,2-2.333H570.083z M570.75,10.167
				c0-0.667-0.5-1.167-1.167-1.167c-0.666,0-1.166,0.5-1.166,1.167c0,0.666,0.5,1.166,1.166,1.166
				C570.25,11.333,570.75,10.833,570.75,10.167z"/>
		</g>
	</g>
	<g id="XMLID_8_">
		<path id="XMLID_9_" fill="#67A53F" d="M570.25,29.833h-11.333c-0.5,0-0.667-0.5-0.667-1.5c0-0.5,0.167-0.833,0.5-0.833h21
			c0.333,0,0.667,0,0.667,0.833c0.166,1-0.167,1.667-0.667,1.667C576.583,29.833,573.417,29.833,570.25,29.833z"/>
	</g>
	<g id="XMLID_6_">
		<path id="XMLID_7_" fill="#67A53F" d="M570.25,21h9.667c0.5,0,0.666,0.333,0.666,1.333c0,0.667-0.166,1-0.5,1h-21
			c-0.333,0-0.666,0-0.666-1s0.166-1.5,0.666-1.5C562.083,21,567.083,21,570.25,21z"/>
	</g>
	<g id="XMLID_4_">
		<path id="XMLID_5_" fill="#67A53F" d="M565.083,36.167h-6.166c-0.334,0-0.667-0.167-0.667-1.167s0.167-1.333,0.667-1.333h10.666
			c0.334,0,0.667,0.166,0.667,1.166s-0.167,1.334-0.667,1.334C568.083,36.241,566.583,36.167,565.083,36.167z"/>
	</g>
</g>
<g>
	<path id="XMLID_26_" fill="#AD2129" d="M550.25,122.334h39.5c0.781-0.146,0.833-0.333,1.167-0.5c1-0.666,1.5-1.666,1.5-2.833v-34
		c-0.167-1.333-1.334-2.5-2.834-2.5h-8.166c-0.167,0-0.334,0-0.334,0.333v2.5c0,0.334,0.167,0.334,0.334,0.334h6.666
		c1,0,1.334,0.333,1.334,1.333v31c0,1-0.334,1.333-1.167,1.333h-36.5c-0.833,0-1.167-0.333-1.167-1.333v-31
		c0-1,0.334-1.333,1.334-1.333h6.666c0.167,0,0.334,0,0.334-0.334v-2.5c0-0.333-0.167-0.333-0.334-0.333h-8.166
		c-1.5,0-2.667,1.167-2.834,2.5v34c0,1.167,0.5,2.167,1.5,2.833C549.417,122.001,549.578,122.235,550.25,122.334z"/>
	<g id="XMLID_23_">
		<g id="XMLID_24_">
			<path id="XMLID_25_" fill="#AD2129" d="M570.083,77.668c1.167,0.5,1.834,1.166,2,2.333c0,0.333,0.334,0.167,0.334,0.167h3.166
				c1.167,0,2,0.666,2,1.833v3.667c0,0.666-0.166,0.666-0.666,0.833h-14.5c-0.667,0-0.667-0.167-0.667-0.833v-3.667
				c0-1.167,0.833-1.833,2-1.833h3.167c0.166,0,0.333,0.166,0.333-0.167c0.167-1.167,0.833-1.833,2-2.333H570.083z M570.75,80.168
				c0-0.667-0.5-1.167-1.167-1.167c-0.666,0-1.166,0.5-1.166,1.167c0,0.666,0.5,1.166,1.166,1.166
				C570.25,81.334,570.75,80.834,570.75,80.168z"/>
		</g>
	</g>
	<g id="XMLID_16_">
		<path id="XMLID_22_" fill="#AD2129" d="M570.25,99.834h-11.333c-0.5,0-0.667-0.5-0.667-1.5c0-0.5,0.167-0.833,0.5-0.833h21
			c0.333,0,0.667,0,0.667,0.833c0.166,1-0.167,1.667-0.667,1.667C576.583,99.834,573.417,99.834,570.25,99.834z"/>
	</g>
	<g id="XMLID_14_">
		<path id="XMLID_15_" fill="#AD2129" d="M570.25,91.001h9.667c0.5,0,0.666,0.333,0.666,1.333c0,0.667-0.166,1-0.5,1h-21
			c-0.333,0-0.666,0-0.666-1s0.166-1.5,0.666-1.5C562.083,91.001,567.083,91.001,570.25,91.001z"/>
	</g>
	<g id="XMLID_2_">
		<path id="XMLID_3_" fill="#AD2129" d="M565.083,106.168h-6.166c-0.334,0-0.667-0.167-0.667-1.167s0.167-1.333,0.667-1.333h10.666
			c0.334,0,0.667,0.166,0.667,1.166s-0.167,1.334-0.667,1.334C568.083,106.242,566.583,106.168,565.083,106.168z"/>
	</g>
</g>
<g>
	<path id="XMLID_38_" fill="#C4C4C4" d="M550.25,192.333h39.5c0.781-0.146,0.833-0.333,1.167-0.5c1-0.666,1.5-1.666,1.5-2.833v-34
		c-0.167-1.333-1.334-2.5-2.834-2.5h-8.166c-0.167,0-0.334,0-0.334,0.333v2.5c0,0.334,0.167,0.334,0.334,0.334h6.666
		c1,0,1.334,0.333,1.334,1.333v31c0,1-0.334,1.333-1.167,1.333h-36.5c-0.833,0-1.167-0.333-1.167-1.333v-31
		c0-1,0.334-1.333,1.334-1.333h6.666c0.167,0,0.334,0,0.334-0.334v-2.5c0-0.333-0.167-0.333-0.334-0.333h-8.166
		c-1.5,0-2.667,1.167-2.834,2.5v34c0,1.167,0.5,2.167,1.5,2.833C549.417,192,549.578,192.234,550.25,192.333z"/>
	<g id="XMLID_34_">
		<g id="XMLID_35_">
			<path id="XMLID_37_" fill="#C4C4C4" d="M570.083,147.667c1.167,0.5,1.834,1.166,2,2.333c0,0.333,0.334,0.167,0.334,0.167h3.166
				c1.167,0,2,0.666,2,1.833v3.667c0,0.666-0.166,0.666-0.666,0.833h-14.5c-0.667,0-0.667-0.167-0.667-0.833V152
				c0-1.167,0.833-1.833,2-1.833h3.167c0.166,0,0.333,0.166,0.333-0.167c0.167-1.167,0.833-1.833,2-2.333H570.083z M570.75,150.167
				c0-0.667-0.5-1.167-1.167-1.167c-0.666,0-1.166,0.5-1.166,1.167c0,0.666,0.5,1.166,1.166,1.166
				C570.25,151.333,570.75,150.833,570.75,150.167z"/>
		</g>
	</g>
	<g id="XMLID_32_">
		<path id="XMLID_33_" fill="#C4C4C4" d="M570.25,169.833h-11.333c-0.5,0-0.667-0.5-0.667-1.5c0-0.5,0.167-0.833,0.5-0.833h21
			c0.333,0,0.667,0,0.667,0.833c0.166,1-0.167,1.667-0.667,1.667C576.583,169.833,573.417,169.833,570.25,169.833z"/>
	</g>
	<g id="XMLID_29_">
		<path id="XMLID_30_" fill="#C4C4C4" d="M570.25,161h9.667c0.5,0,0.666,0.333,0.666,1.333c0,0.667-0.166,1-0.5,1h-21
			c-0.333,0-0.666,0-0.666-1s0.166-1.5,0.666-1.5C562.083,161,567.083,161,570.25,161z"/>
	</g>
	<g id="XMLID_27_">
		<path id="XMLID_28_" fill="#C4C4C4" d="M565.083,176.167h-6.166c-0.334,0-0.667-0.167-0.667-1.167s0.167-1.333,0.667-1.333h10.666
			c0.334,0,0.667,0.166,0.667,1.166s-0.167,1.334-0.667,1.334C568.083,176.241,566.583,176.167,565.083,176.167z"/>
	</g>
</g>
<g>
	<path fill="#67A53F" d="M627.167,52.333c-4,0-7.334-3.333-7.334-7.333V16.667c0-1,0.834-1.666,1.667-1.666h11.333
		c1,0,1.667,0.833,1.667,1.666V45C634.5,49,631.167,52.333,627.167,52.333L627.167,52.333z M623.167,18.333V45c0,2.166,1.833,4,4,4
		c2.166,0,4-1.834,4-4V18.333H623.167z"/>
	<path fill="#67A53F" d="M632.833,18.333H621.5c-1,0-1.667-0.833-1.667-1.667V9.333c0-1,0.834-1.667,1.667-1.667h11.333
		c1,0,1.667,0.834,1.667,1.667v7.333C634.5,17.5,633.667,18.333,632.833,18.333z M623.167,14.833H631v-3.667h-7.833V14.833z"/>
	<path id="XMLID_31_" fill="#67A53F" d="M647.167,12.667c-1,0-1.667-0.833-1.667-1.666v-0.834c0-1,0.833-1.666,1.667-1.666
		c0.833,0,1.666,0.833,1.666,1.666V11C649,12,648.167,12.667,647.167,12.667z"/>
	<path fill="#67A53F" d="M652.833,52.333c-0.333,0-0.833,0-1.166-0.167c-1-0.166-1.5-1-1.5-2c0.166-1,1-1.5,2-1.5h1.166
		c1-0.166,1.834,0.5,2,1.5c0.167,1-0.5,1.834-1.5,2C653.667,52.333,653.333,52.333,652.833,52.333z M658.5,47.5h-0.333
		c-1-0.167-1.5-1-1.5-2V44c0-1,0.833-1.667,1.666-1.667c1,0,1.667,0.833,1.667,1.667v1c0,0.333,0,0.833-0.167,1.166
		C660,47,659.333,47.5,658.5,47.5z M647.333,47.5c-0.833,0-1.5-0.667-1.666-1.5c0-0.334-0.167-0.834-0.167-1.167V44
		c0-1,0.833-1.667,1.667-1.667c0.833,0,1.666,0.833,1.666,1.667v1.666c0.167,1-0.5,1.834-1.5,2
		C647.5,47.5,647.333,47.5,647.333,47.5z M658.5,38.667c-1,0-1.667-0.833-1.667-1.666v-1.834c0-1,0.834-1.666,1.667-1.666
		c1,0,1.667,0.833,1.667,1.666V37C660.333,37.833,659.5,38.667,658.5,38.667z M647.167,38.667c-1,0-1.667-0.833-1.667-1.666v-1.834
		c0-1,0.833-1.666,1.667-1.666c0.833,0,1.666,0.833,1.666,1.666V37C649,37.833,648.167,38.667,647.167,38.667z M658.5,29.833
		c-1,0-1.667-0.833-1.667-1.667v-1.833c0-1,0.834-1.667,1.667-1.667c1,0,1.667,0.834,1.667,1.667v1.833
		C660.333,29,659.5,29.833,658.5,29.833z M647.167,29.833c-1,0-1.667-0.833-1.667-1.667v-1.833c0-1,0.833-1.667,1.667-1.667
		c0.833,0,1.666,0.834,1.666,1.667v1.833C649,29,648.167,29.833,647.167,29.833z M658.5,20.833c-1,0-1.667-0.833-1.667-1.667v-1.833
		c0-1,0.834-1.667,1.667-1.667c1,0,1.667,0.834,1.667,1.667v1.833C660.333,20.167,659.5,20.833,658.5,20.833z M647.167,20.833
		c-1,0-1.667-0.833-1.667-1.667v-1.833c0-1,0.833-1.667,1.667-1.667c0.833,0,1.666,0.834,1.666,1.667v1.833
		C649,20.167,648.167,20.833,647.167,20.833z"/>
	<path id="XMLID_21_" fill="#67A53F" d="M658.5,12.667c-1,0-1.667-0.833-1.667-1.666v-0.834c0-1,0.834-1.666,1.667-1.666
		c1,0,1.667,0.833,1.667,1.666V11C660.333,12,659.5,12.667,658.5,12.667z"/>
	<path id="XMLID_20_" fill="#67A53F" d="M631.167,25.667h15.666v3.5h-15.666V25.667z"/>
	<path id="XMLID_19_" fill="#67A53F" d="M617.667,7.667H636.5v3.5h-18.833V7.667z"/>
	<path id="XMLID_18_" fill="#67A53F" d="M647.167,11.167h-2c-1,0-1.667-0.833-1.667-1.666c0-1,0.833-1.667,1.667-1.667h2
		c1,0,1.666,0.833,1.666,1.667C649,10.333,648.167,11.167,647.167,11.167z"/>
	<path id="XMLID_17_" fill="#67A53F" d="M653.667,11.167h-1.5c-1,0-1.667-0.833-1.667-1.666c0-1,0.833-1.667,1.667-1.667h1.5
		c1,0,1.666,0.833,1.666,1.667C655.333,10.333,654.5,11.167,653.667,11.167z"/>
	<path id="XMLID_1_" fill="#67A53F" d="M660.667,11.167h-2c-1,0-1.667-0.833-1.667-1.666c0-1,0.833-1.667,1.667-1.667h2
		c1,0,1.666,0.833,1.666,1.667C662.333,10.333,661.5,11.167,660.667,11.167z"/>
</g>
<g>
	<path fill="#67A53F" d="M732.416,15.167c0-4.166-3.332-7.5-7.5-7.5c-4.166,0-7.5,3.334-7.5,7.5c0,3.5,2.334,6.334,5.668,7.167
		v5.833h-5.668c-0.832-3.166-3.832-5.666-7.332-5.666s-6.5,2.333-7.334,5.666h-9.666v9.667c-3.168,0.833-5.5,3.667-5.5,7.167
		c0,4.166,3.332,7.333,7.332,7.333c4.168,0,7.334-3.333,7.334-7.333c0-3.5-2.334-6.334-5.666-7.167V32h5.832
		c0.834,3.166,3.834,5.666,7.168,5.666c3.5,0,6.5-2.333,7.332-5.666h9.5v-9.5C730.084,21.5,732.416,18.667,732.416,15.167z
		 M698.916,44.833c0,2-1.666,3.667-3.666,3.667s-3.666-1.667-3.666-3.667s1.666-3.667,3.666-3.667S698.916,42.833,698.916,44.833z
		 M710.084,33.833c-2,0-3.834-1.667-3.834-3.833c0-2.167,1.666-3.834,3.834-3.834c2.166,0,3.832,1.667,3.832,3.834
		C713.916,32.167,712.25,33.833,710.084,33.833z M725.084,18.833c-2,0-3.668-1.667-3.668-3.667s1.668-3.666,3.668-3.666
		s3.666,1.666,3.666,3.666S727.084,18.833,725.084,18.833z"/>
	<path id="XMLID_36_" fill="#67A53F" d="M697.084,39.5"/>
</g>
<g>
	<path fill="#AD2129" d="M627.167,122.334c-4,0-7.334-3.334-7.334-7.334V86.667c0-1,0.834-1.667,1.667-1.667h11.333
		c1,0,1.667,0.833,1.667,1.667V115C634.5,119,631.167,122.334,627.167,122.334L627.167,122.334z M623.167,88.333V115
		c0,2.166,1.833,4,4,4c2.166,0,4-1.834,4-4V88.333H623.167z"/>
	<path fill="#AD2129" d="M632.833,88.333H621.5c-1,0-1.667-0.833-1.667-1.667V79.5c0-1,0.834-1.667,1.667-1.667h11.333
		c1,0,1.667,0.833,1.667,1.667v7.167C634.5,87.5,633.667,88.333,632.833,88.333z M623.167,84.833H631V81h-7.833V84.833z"/>
	<path id="XMLID_69_" fill="#AD2129" d="M647.167,82.667c-1,0-1.667-0.833-1.667-1.667v-0.833c0-1,0.833-1.667,1.667-1.667
		c0.833,0,1.666,0.833,1.666,1.667V81C649,82,648.167,82.667,647.167,82.667z"/>
	<path fill="#AD2129" d="M652.833,122.334c-0.333,0-0.833,0-1.166-0.168c-1-0.166-1.5-1-1.5-2c0.166-1,1-1.5,2-1.5h1.166
		c1-0.166,1.834,0.5,2,1.5c0.167,1-0.5,1.834-1.5,2C653.667,122.334,653.333,122.334,652.833,122.334z M658.5,117.5h-0.333
		c-1-0.166-1.5-1-1.5-2V114c0-1,0.833-1.666,1.666-1.666c1,0,1.667,0.832,1.667,1.666v1c0,0.334,0,0.834-0.167,1.166
		C660,117,659.333,117.5,658.5,117.5z M647.333,117.5c-0.833,0-1.5-0.666-1.666-1.5c0-0.334-0.167-0.834-0.167-1.166V114
		c0-1,0.833-1.666,1.667-1.666c0.833,0,1.666,0.832,1.666,1.666v1.666c0.167,1-0.5,1.834-1.5,2
		C647.5,117.5,647.333,117.5,647.333,117.5z M658.5,108.666c-1,0-1.667-0.832-1.667-1.666v-1.834c0-1,0.834-1.666,1.667-1.666
		c1,0,1.667,0.834,1.667,1.666V107C660.333,107.834,659.5,108.666,658.5,108.666z M647.167,108.666c-1,0-1.667-0.832-1.667-1.666
		v-1.834c0-1,0.833-1.666,1.667-1.666c0.833,0,1.666,0.834,1.666,1.666V107C649,107.834,648.167,108.666,647.167,108.666z
		 M658.5,99.833c-1,0-1.667-0.833-1.667-1.667v-1.833c0-1,0.834-1.667,1.667-1.667c1,0,1.667,0.833,1.667,1.667v1.833
		C660.333,99,659.5,99.833,658.5,99.833z M647.167,99.833c-1,0-1.667-0.833-1.667-1.667v-1.833c0-1,0.833-1.667,1.667-1.667
		c0.833,0,1.666,0.833,1.666,1.667v1.833C649,99,648.167,99.833,647.167,99.833z M658.5,90.833c-1,0-1.667-0.833-1.667-1.667v-1.833
		c0-1,0.834-1.667,1.667-1.667c1,0,1.667,0.833,1.667,1.667v1.833C660.333,90.167,659.5,90.833,658.5,90.833z M647.167,90.833
		c-1,0-1.667-0.833-1.667-1.667v-1.833c0-1,0.833-1.667,1.667-1.667c0.833,0,1.666,0.833,1.666,1.667v1.833
		C649,90.167,648.167,90.833,647.167,90.833z"/>
	<path id="XMLID_59_" fill="#AD2129" d="M658.5,82.667c-1,0-1.667-0.833-1.667-1.667v-0.833c0-1,0.834-1.667,1.667-1.667
		c1,0,1.667,0.833,1.667,1.667V81C660.333,82,659.5,82.667,658.5,82.667z"/>
	<path id="XMLID_58_" fill="#AD2129" d="M632.167,95.667h14.666v3.5h-14.666V95.667z"/>
	<g>
		<path id="XMLID_57_" fill="#AD2129" d="M617.667,77.667H636.5v3.5h-18.833V77.667z"/>
	</g>
	<g>
		<path id="XMLID_56_" fill="#AD2129" d="M647.167,81.167h-2c-1,0-1.667-0.833-1.667-1.667c0-1,0.833-1.667,1.667-1.667h2
			c1,0,1.666,0.833,1.666,1.667C649,80.333,648.167,81.167,647.167,81.167z"/>
		<path id="XMLID_55_" fill="#AD2129" d="M653.667,81.167h-1.5c-1,0-1.667-0.833-1.667-1.667c0-1,0.833-1.667,1.667-1.667h1.5
			c1,0,1.666,0.833,1.666,1.667S654.5,81.167,653.667,81.167z"/>
		<path id="XMLID_54_" fill="#AD2129" d="M660.667,81.167h-2c-1,0-1.667-0.833-1.667-1.667c0-1,0.833-1.667,1.667-1.667h2
			c1,0,1.666,0.833,1.666,1.667S661.5,81.167,660.667,81.167z"/>
	</g>
</g>
<g>
	<path fill="#AD2129" d="M732.416,85.167c0-4.167-3.332-7.5-7.5-7.5c-4.166,0-7.5,3.333-7.5,7.5c0,3.5,2.334,6.333,5.668,7.167
		v5.833h-5.668c-0.832-3.167-3.832-5.667-7.332-5.667s-6.5,2.333-7.334,5.667h-9.666v9.667c-3.168,0.832-5.5,3.666-5.5,7.166
		c0,4.166,3.332,7.334,7.332,7.334c4.168,0,7.334-3.334,7.334-7.334c0-3.5-2.334-6.334-5.666-7.166V102h5.832
		c0.834,3.166,3.834,5.666,7.168,5.666c3.5,0,6.5-2.332,7.332-5.666h9.5v-9.5C730.084,91.5,732.416,88.667,732.416,85.167z
		 M698.916,114.834c0,2-1.666,3.666-3.666,3.666s-3.666-1.666-3.666-3.666s1.666-3.668,3.666-3.668S698.916,112.834,698.916,114.834
		z M710.084,103.834c-2,0-3.834-1.668-3.834-3.834c0-2.167,1.666-3.833,3.834-3.833c2.166,0,3.832,1.667,3.832,3.833
		C713.916,102.166,712.25,103.834,710.084,103.834z M725.084,88.833c-2,0-3.668-1.667-3.668-3.667s1.668-3.667,3.668-3.667
		s3.666,1.667,3.666,3.667S727.084,88.833,725.084,88.833z"/>
	<path id="XMLID_74_" fill="#AD2129" d="M697.084,109.5"/>
</g>
<g>
	<path fill="#C4C4C4" d="M627.167,192.333c-4,0-7.334-3.334-7.334-7.334v-28.332c0-1,0.834-1.668,1.667-1.668h11.333
		c1,0,1.667,0.834,1.667,1.668v28.332C634.5,188.999,631.167,192.333,627.167,192.333L627.167,192.333z M623.167,158.333v26.666
		c0,2.168,1.833,4,4,4c2.166,0,4-1.832,4-4v-26.666H623.167z"/>
	<path fill="#C4C4C4" d="M632.833,158.333H621.5c-1,0-1.667-0.834-1.667-1.666v-7.168c0-1,0.834-1.666,1.667-1.666h11.333
		c1,0,1.667,0.834,1.667,1.666v7.168C634.5,157.499,633.667,158.333,632.833,158.333z M623.167,154.833H631v-3.834h-7.833V154.833z"
		/>
	<path id="XMLID_95_" fill="#C4C4C4" d="M647.167,152.667c-1,0-1.667-0.834-1.667-1.668v-0.832c0-1,0.833-1.668,1.667-1.668
		c0.833,0,1.666,0.834,1.666,1.668v0.832C649,151.999,648.167,152.667,647.167,152.667z"/>
	<path fill="#C4C4C4" d="M652.833,192.333c-0.333,0-0.833,0-1.166-0.166c-1-0.168-1.5-1-1.5-2c0.166-1,1-1.5,2-1.5h1.166
		c1-0.168,1.834,0.5,2,1.5c0.167,1-0.5,1.832-1.5,2C653.667,192.333,653.333,192.333,652.833,192.333z M658.5,187.499h-0.333
		c-1-0.166-1.5-1-1.5-2v-1.5c0-1,0.833-1.666,1.666-1.666c1,0,1.667,0.834,1.667,1.666v0.834c0,0.334,0,0.834-0.167,1.166
		C660,186.999,659.333,187.499,658.5,187.499z M647.333,187.499c-0.833,0-1.5-0.666-1.666-1.5c0-0.332-0.167-0.832-0.167-1.166
		v-0.834c0-1,0.833-1.666,1.667-1.666c0.833,0,1.666,0.834,1.666,1.666v1.5C649,186.499,648.333,187.333,647.333,187.499
		C647.5,187.499,647.333,187.499,647.333,187.499z M658.5,178.667c-1,0-1.667-0.834-1.667-1.668v-1.832c0-1,0.834-1.668,1.667-1.668
		c1,0,1.667,0.834,1.667,1.668v1.832C660.333,177.833,659.5,178.667,658.5,178.667z M647.167,178.667c-1,0-1.667-0.834-1.667-1.668
		v-1.832c0-1,0.833-1.668,1.667-1.668c0.833,0,1.666,0.834,1.666,1.668v1.832C649,177.833,648.167,178.667,647.167,178.667z
		 M658.5,169.833c-1,0-1.667-0.834-1.667-1.666v-1.834c0-1,0.834-1.666,1.667-1.666c1,0,1.667,0.832,1.667,1.666v1.834
		C660.333,168.999,659.5,169.833,658.5,169.833z M647.167,169.833c-1,0-1.667-0.834-1.667-1.666v-1.834c0-1,0.833-1.666,1.667-1.666
		c0.833,0,1.666,0.832,1.666,1.666v1.834C649,168.999,648.167,169.833,647.167,169.833z M658.5,160.833
		c-1,0-1.667-0.834-1.667-1.666v-1.834c0-1,0.834-1.666,1.667-1.666c1,0,1.667,0.832,1.667,1.666v1.834
		C660.333,160.167,659.5,160.833,658.5,160.833z M647.167,160.833c-1,0-1.667-0.834-1.667-1.666v-1.834c0-1,0.833-1.666,1.667-1.666
		c0.833,0,1.666,0.832,1.666,1.666v1.834C649,160.167,648.167,160.833,647.167,160.833z"/>
	<path id="XMLID_85_" fill="#C4C4C4" d="M658.5,152.667c-1,0-1.667-0.834-1.667-1.668v-0.832c0-1,0.834-1.668,1.667-1.668
		c1,0,1.667,0.834,1.667,1.668v0.832C660.333,151.999,659.5,152.667,658.5,152.667z"/>
	<path id="XMLID_84_" fill="#C4C4C4" d="M632.167,165.667h14.666v3.5h-14.666V165.667z"/>
	<g>
		<path id="XMLID_83_" fill="#C4C4C4" d="M617.667,147.667H636.5v3.5h-18.833V147.667z"/>
	</g>
	<g>
		<path id="XMLID_82_" fill="#C4C4C4" d="M647.167,151.167h-2c-1,0-1.667-0.834-1.667-1.668c0-1,0.833-1.666,1.667-1.666h2
			c1,0,1.666,0.834,1.666,1.666C649,150.333,648.167,151.167,647.167,151.167z"/>
		<path id="XMLID_81_" fill="#C4C4C4" d="M653.667,151.167h-1.5c-1,0-1.667-0.834-1.667-1.668c0-1,0.833-1.666,1.667-1.666h1.5
			c1,0,1.666,0.834,1.666,1.666C655.333,150.333,654.5,151.167,653.667,151.167z"/>
		<path id="XMLID_80_" fill="#C4C4C4" d="M660.667,151.167h-2c-1,0-1.667-0.834-1.667-1.668c0-1,0.833-1.666,1.667-1.666h2
			c1,0,1.666,0.834,1.666,1.666C662.333,150.333,661.5,151.167,660.667,151.167z"/>
	</g>
</g>
<g>
	<path fill="#C4C4C4" d="M732.416,155.167c0-4.168-3.332-7.5-7.5-7.5c-4.166,0-7.5,3.332-7.5,7.5c0,3.5,2.334,6.332,5.668,7.166
		v5.834h-5.668c-0.832-3.168-3.832-5.668-7.332-5.668s-6.5,2.334-7.334,5.668h-9.666v9.666c-3.168,0.834-5.5,3.666-5.5,7.166
		c0,4.168,3.332,7.334,7.332,7.334c4.168,0,7.334-3.334,7.334-7.334c0-3.5-2.334-6.332-5.666-7.166v-5.834h5.832
		c0.834,3.168,3.834,5.668,7.168,5.668c3.5,0,6.5-2.334,7.332-5.668h9.5v-9.5C730.084,161.499,732.416,158.667,732.416,155.167
		L732.416,155.167z M698.916,184.833c0,2-1.666,3.666-3.666,3.666s-3.666-1.666-3.666-3.666s1.666-3.666,3.666-3.666
		S698.916,182.833,698.916,184.833z M710.084,173.833c-2,0-3.834-1.666-3.834-3.834c0-2.166,1.666-3.832,3.834-3.832
		c2.166,0,3.832,1.666,3.832,3.832C713.916,172.167,712.25,173.833,710.084,173.833z M725.084,158.833c-2,0-3.668-1.666-3.668-3.666
		s1.668-3.668,3.668-3.668s3.666,1.668,3.666,3.668S727.084,158.833,725.084,158.833z"/>
	<path id="XMLID_100_" fill="#C4C4C4" d="M697.084,179.499"/>
</g>
</svg>
