<?xml version="1.0" encoding="utf-8"?>
<!-- Generator: Adobe Illustrator 16.0.4, SVG Export Plug-In . SVG Version: 6.00 Build 0)  -->
<!DOCTYPE svg PUBLIC "-//W3C//DTD SVG 1.1//EN" "http://www.w3.org/Graphics/SVG/1.1/DTD/svg11.dtd">
<svg version="1.1" id="Layer_1" xmlns="http://www.w3.org/2000/svg" xmlns:xlink="http://www.w3.org/1999/xlink" x="0px" y="0px"
	 width="121px" height="121px" viewBox="0 0 121 121" enable-background="new 0 0 121 121" xml:space="preserve">
<g>
	<g>
		<path fill="#5C8942" d="M52.711,37c-2.461,0-4.463-2.005-4.463-4.471V15.4c0-0.575,0.463-1.039,1.037-1.039h6.854
			c0.574,0,1.039,0.464,1.039,1.039v17.129C57.178,34.995,55.174,37,52.711,37z M50.324,16.438v16.092
			c0,1.322,1.07,2.393,2.387,2.393c1.318,0,2.391-1.07,2.391-2.393V16.438H50.324z"/>
	</g>
	<g>
		<path fill="#5C8942" d="M56.139,16.438h-6.854c-0.574,0-1.037-0.464-1.037-1.037v-4.362c0-0.574,0.463-1.038,1.037-1.038h6.854
			c0.574,0,1.039,0.464,1.039,1.038V15.4C57.178,15.974,56.713,16.438,56.139,16.438z M50.324,14.361h4.777v-2.284h-4.777V14.361z"
			/>
	</g>
	<g>
		<g>
			<path fill="#5C8942" d="M64.861,13.023c-0.574,0-1.039-0.464-1.039-1.038v-0.519c0-0.575,0.465-1.039,1.039-1.039
				s1.037,0.464,1.037,1.039v0.519C65.898,12.56,65.436,13.023,64.861,13.023z"/>
		</g>
		<g>
			<path fill="#5C8942" d="M68.289,37c-0.242,0-0.479-0.021-0.711-0.057c-0.566-0.092-0.951-0.624-0.859-1.189
				c0.09-0.566,0.627-0.953,1.189-0.861c0.242,0.035,0.504,0.041,0.748,0.003c0.578-0.088,1.096,0.304,1.184,0.867
				c0.086,0.568-0.299,1.099-0.867,1.186C68.75,36.981,68.521,37,68.289,37z M71.672,34.125c-0.055,0-0.111-0.003-0.168-0.014
				c-0.566-0.091-0.953-0.623-0.859-1.192c0.02-0.126,0.031-0.254,0.031-0.39v-0.515c0-0.574,0.463-1.038,1.039-1.038
				c0.574,0,1.037,0.464,1.037,1.038v0.515c0,0.249-0.02,0.489-0.057,0.726C72.613,33.763,72.17,34.125,71.672,34.125z M64.9,34.104
				c-0.502,0-0.941-0.365-1.023-0.876c-0.037-0.229-0.055-0.458-0.055-0.698v-0.536c0-0.575,0.465-1.038,1.039-1.038
				s1.037,0.463,1.037,1.038v0.536c0,0.128,0.012,0.253,0.031,0.376c0.086,0.565-0.299,1.097-0.865,1.188
				C65.008,34.101,64.957,34.104,64.9,34.104z M71.715,28.75c-0.576,0-1.039-0.463-1.039-1.038v-1.075
				c0-0.575,0.463-1.037,1.039-1.037c0.574,0,1.037,0.462,1.037,1.037v1.075C72.752,28.287,72.289,28.75,71.715,28.75z
				 M64.861,28.728c-0.574,0-1.039-0.462-1.039-1.036v-1.077c0-0.574,0.465-1.036,1.039-1.036s1.037,0.462,1.037,1.036v1.077
				C65.898,28.266,65.436,28.728,64.861,28.728z M71.715,23.371c-0.576,0-1.039-0.465-1.039-1.039v-1.074
				c0-0.574,0.463-1.038,1.039-1.038c0.574,0,1.037,0.464,1.037,1.038v1.074C72.752,22.906,72.289,23.371,71.715,23.371z
				 M64.861,23.352c-0.574,0-1.039-0.464-1.039-1.039v-1.076c0-0.573,0.465-1.037,1.039-1.037s1.037,0.464,1.037,1.037v1.076
				C65.898,22.888,65.436,23.352,64.861,23.352z M71.715,17.993c-0.576,0-1.039-0.465-1.039-1.038V15.88
				c0-0.573,0.463-1.038,1.039-1.038c0.574,0,1.037,0.465,1.037,1.038v1.075C72.752,17.528,72.289,17.993,71.715,17.993z
				 M64.861,17.974c-0.574,0-1.039-0.464-1.039-1.039v-1.076c0-0.573,0.465-1.037,1.039-1.037s1.037,0.464,1.037,1.037v1.076
				C65.898,17.51,65.436,17.974,64.861,17.974z"/>
		</g>
		<g>
			<path fill="#5C8942" d="M71.715,13.023c-0.576,0-1.039-0.464-1.039-1.038v-0.519c0-0.575,0.463-1.039,1.039-1.039
				c0.574,0,1.037,0.464,1.037,1.039v0.519C72.752,12.56,72.289,13.023,71.715,13.023z"/>
		</g>
	</g>
	<g>
		<g>
			<rect x="55.102" y="20.914" fill="#5C8942" width="9.551" height="2.077"/>
		</g>
	</g>
	<g>
		<rect x="47" y="10" fill="#5C8942" width="11.424" height="2.077"/>
	</g>
	<g>
		<g>
			<path fill="#5C8942" d="M64.859,12.077h-1.244c-0.574,0-1.037-0.466-1.037-1.039c0-0.574,0.463-1.038,1.037-1.038h1.244
				c0.574,0,1.037,0.464,1.037,1.038C65.896,11.611,65.434,12.077,64.859,12.077z"/>
		</g>
		<g>
			<path fill="#5C8942" d="M68.75,12.077h-0.924c-0.574,0-1.039-0.466-1.039-1.039c0-0.574,0.465-1.038,1.039-1.038h0.924
				c0.572,0,1.037,0.464,1.037,1.038C69.787,11.611,69.322,12.077,68.75,12.077z"/>
		</g>
		<g>
			<path fill="#5C8942" d="M72.961,12.077h-1.246c-0.574,0-1.039-0.466-1.039-1.039c0-0.574,0.465-1.038,1.039-1.038h1.246
				C73.535,10,74,10.464,74,11.038C74,11.611,73.535,12.077,72.961,12.077z"/>
		</g>
	</g>
</g>
<g>
	<g>
		<g>
			<g>
				<path fill="#5C8942" d="M111,14.511c0-2.493-2.018-4.511-4.503-4.511c-2.488,0-4.508,2.018-4.508,4.511
					c0,2.104,1.439,3.869,3.387,4.37v3.504h-3.472c-0.504-1.966-2.273-3.417-4.391-3.417c-2.113,0-3.884,1.451-4.387,3.417h-5.811
					v5.8C85.405,28.695,84,30.437,84,32.515C84,34.988,86.002,37,88.474,37c2.473,0,4.479-2.012,4.479-4.485
					c0-2.102-1.444-3.862-3.389-4.351v-3.529h3.565c0.501,1.961,2.273,3.416,4.385,3.416c2.117,0,3.885-1.455,4.389-3.416h5.718
					v-5.76C109.562,18.374,111,16.614,111,14.511z M90.717,32.515c0,1.232-1,2.236-2.234,2.236c-1.23,0-2.238-1.004-2.238-2.236
					c0-1.234,1.008-2.238,2.238-2.238C89.717,30.276,90.717,31.28,90.717,32.515z M89.574,29.277L89.574,29.277L89.574,29.277z
					 M97.539,25.797c-1.26,0-2.287-1.024-2.287-2.289c0-1.263,1.027-2.291,2.287-2.291c1.264,0,2.291,1.028,2.291,2.291
					C99.83,24.772,98.803,25.797,97.539,25.797z M106.539,16.774c-1.25,0-2.264-1.017-2.264-2.264s1.014-2.263,2.264-2.263
					c1.248,0,2.262,1.016,2.262,2.263S107.787,16.774,106.539,16.774z"/>
			</g>
		</g>
		<line fill="#5C8942" x1="89.658" y1="29.277" x2="89.658" y2="29.277"/>
	</g>
</g>
<g>
	<g>
		<g>
			<path fill-rule="evenodd" clip-rule="evenodd" fill="#5C8942" d="M37,14.936c0-0.163-0.01-0.32-0.041-0.485
				c-0.172-0.863-0.895-1.516-1.752-1.528c-1.041-0.019-3.886-0.002-4.927-0.009c-0.147,0-0.204,0.046-0.202,0.198
				c0.005,0.51,0.007,1.015-0.001,1.523c-0.002,0.169,0.079,0.184,0.212,0.184c0.758-0.006,3.323-0.003,4.081,0
				c0.553,0,0.779,0.227,0.779,0.783c0,6.794,0,11.942,0,18.731c-0.002,0.524-0.234,0.765-0.744,0.765c-1.876,0-19.932,0-21.81,0
				c-0.505,0-0.74-0.24-0.742-0.765c0-6.789,0-11.938,0-18.731c0-0.557,0.227-0.783,0.779-0.783c0.759-0.003,3.324-0.006,4.082,0
				c0.132,0,0.215-0.015,0.21-0.184c-0.009-0.509-0.006-1.014-0.001-1.523c0.001-0.152-0.053-0.198-0.202-0.198
				c-1.04,0.007-3.887-0.01-4.927,0.009c-0.858,0.013-1.581,0.665-1.751,1.528C10.01,14.615,10,14.772,10,14.936
				c0,7.24,0.001,12.827,0,20.067c0,0.724,0.277,1.291,0.863,1.701c0.206,0.143,0.446,0.196,0.67,0.296c1.142,0,22.793,0,23.934,0
				c0.223-0.1,0.465-0.153,0.67-0.296C36.722,36.294,37,35.727,37,35.003C37,27.763,37,22.176,37,14.936z"/>
		</g>
		<g>
			<g>
				<path fill-rule="evenodd" clip-rule="evenodd" fill="#5C8942" d="M23.831,10c0.65,0.247,1.104,0.662,1.188,1.394
					c0.019,0.182,0.156,0.124,0.251,0.124c0.625,0.005,1.256,0,1.884,0.002c0.708,0.004,1.164,0.444,1.167,1.147
					c0.008,0.751,0.006,1.5,0.001,2.249c-0.003,0.365-0.087,0.452-0.444,0.455c-2.922,0-5.84,0-8.762,0
					c-0.356-0.003-0.441-0.088-0.442-0.455c-0.002-0.752-0.005-1.5,0-2.249c0.006-0.703,0.458-1.144,1.169-1.147
					c0.627-0.002,1.255,0.003,1.884-0.002c0.096,0,0.233,0.058,0.251-0.124c0.083-0.731,0.539-1.146,1.188-1.394
					C23.39,10,23.61,10,23.831,10z M24.213,11.528c0.006-0.375-0.333-0.721-0.709-0.722c-0.377-0.005-0.72,0.338-0.716,0.717
					c0.001,0.365,0.324,0.697,0.692,0.71C23.854,12.243,24.205,11.905,24.213,11.528z"/>
			</g>
		</g>
		<g>
			<path fill-rule="evenodd" clip-rule="evenodd" fill="#5C8942" d="M23.877,23.365c-1.943,0-4.892,0-6.837,0
				c-0.302,0-0.425-0.33-0.368-0.934c0.033-0.337,0.117-0.548,0.279-0.548c0.054,0,0.11,0,0.164,0c3.845,0,8.693,0,12.538,0
				c0.185,0,0.375-0.042,0.434,0.498c0.067,0.646-0.057,0.983-0.373,0.983C27.77,23.365,25.824,23.365,23.877,23.365z"/>
		</g>
		<g>
			<path fill-rule="evenodd" clip-rule="evenodd" fill="#5C8942" d="M23.873,18.036c1.944,0,3.89,0,5.835,0
				c0.307,0,0.404,0.227,0.384,0.85c-0.015,0.406-0.104,0.637-0.295,0.624c-0.044,0-0.089,0.004-0.135,0.004
				c-3.853,0-8.711-0.004-12.564,0c-0.203,0.009-0.388-0.008-0.427-0.581c-0.043-0.608,0.079-0.896,0.392-0.896
				C18.998,18.036,21.938,18.036,23.873,18.036z"/>
		</g>
		<g>
			<path fill-rule="evenodd" clip-rule="evenodd" fill="#5C8942" d="M20.778,27.211c-0.906,0-2.813-0.007-3.717,0.009
				c-0.233,0-0.396-0.106-0.396-0.711c-0.003-0.562,0.104-0.78,0.4-0.78c1.808,0,4.622,0.006,6.43-0.003
				c0.235,0,0.393,0.143,0.396,0.731c0.006,0.575-0.084,0.754-0.4,0.754C22.587,27.215,21.682,27.211,20.778,27.211z"/>
		</g>
	</g>
</g>
<g>
	<g>
		<g>
			<g>
				<g>
					<path fill="#9A2F41" d="M52.711,74c-2.461,0-4.463-2.004-4.463-4.471V52.4c0-0.574,0.463-1.039,1.037-1.039h6.854
						c0.574,0,1.039,0.465,1.039,1.039v17.129C57.178,71.996,55.174,74,52.711,74z M50.324,53.438v16.092
						c0,1.322,1.07,2.393,2.387,2.393c1.318,0,2.391-1.07,2.391-2.393V53.438H50.324z"/>
				</g>
			</g>
		</g>
		<g>
			<g>
				<g>
					<path fill="#9A2F41" d="M56.139,53.438h-6.854c-0.574,0-1.037-0.463-1.037-1.037v-4.361c0-0.574,0.463-1.039,1.037-1.039h6.854
						c0.574,0,1.039,0.465,1.039,1.039V52.4C57.178,52.975,56.713,53.438,56.139,53.438z M50.324,51.361h4.777v-2.283h-4.777V51.361
						z"/>
				</g>
			</g>
		</g>
		<g>
			<g>
				<g>
					<path fill="#9A2F41" d="M64.861,50.023c-0.574,0-1.039-0.463-1.039-1.037v-0.52c0-0.574,0.465-1.039,1.039-1.039
						s1.037,0.465,1.037,1.039v0.52C65.898,49.561,65.436,50.023,64.861,50.023z"/>
				</g>
			</g>
			<g>
				<g>
					<g>
						<path fill="#9A2F41" d="M68.289,74c-0.242,0-0.479-0.02-0.711-0.057c-0.566-0.092-0.951-0.623-0.859-1.189
							c0.09-0.566,0.627-0.953,1.189-0.861c0.242,0.035,0.504,0.041,0.748,0.004c0.578-0.088,1.096,0.303,1.184,0.867
							c0.086,0.568-0.299,1.098-0.867,1.186C68.75,73.982,68.521,74,68.289,74z M71.672,71.125c-0.055,0-0.111-0.002-0.168-0.014
							c-0.566-0.09-0.953-0.623-0.859-1.191c0.02-0.127,0.031-0.254,0.031-0.391v-0.514c0-0.574,0.463-1.039,1.039-1.039
							c0.574,0,1.037,0.465,1.037,1.039v0.514c0,0.25-0.02,0.49-0.057,0.727C72.613,70.764,72.17,71.125,71.672,71.125z
							 M64.9,71.104c-0.502,0-0.941-0.365-1.023-0.875C63.84,70,63.822,69.77,63.822,69.529v-0.535c0-0.576,0.465-1.039,1.039-1.039
							s1.037,0.463,1.037,1.039v0.535c0,0.129,0.012,0.254,0.031,0.377c0.086,0.564-0.299,1.096-0.865,1.188
							C65.008,71.102,64.957,71.104,64.9,71.104z M71.715,65.75c-0.576,0-1.039-0.463-1.039-1.037v-1.076
							c0-0.574,0.463-1.037,1.039-1.037c0.574,0,1.037,0.463,1.037,1.037v1.076C72.752,65.287,72.289,65.75,71.715,65.75z
							 M64.861,65.729c-0.574,0-1.039-0.463-1.039-1.037v-1.076c0-0.574,0.465-1.037,1.039-1.037s1.037,0.463,1.037,1.037v1.076
							C65.898,65.266,65.436,65.729,64.861,65.729z M71.715,60.371c-0.576,0-1.039-0.465-1.039-1.039v-1.074
							c0-0.574,0.463-1.037,1.039-1.037c0.574,0,1.037,0.463,1.037,1.037v1.074C72.752,59.906,72.289,60.371,71.715,60.371z
							 M64.861,60.352c-0.574,0-1.039-0.463-1.039-1.039v-1.076c0-0.572,0.465-1.037,1.039-1.037s1.037,0.465,1.037,1.037v1.076
							C65.898,59.889,65.436,60.352,64.861,60.352z M71.715,54.994c-0.576,0-1.039-0.465-1.039-1.039v-1.074
							c0-0.574,0.463-1.039,1.039-1.039c0.574,0,1.037,0.465,1.037,1.039v1.074C72.752,54.529,72.289,54.994,71.715,54.994z
							 M64.861,54.975c-0.574,0-1.039-0.465-1.039-1.039v-1.076c0-0.574,0.465-1.037,1.039-1.037s1.037,0.463,1.037,1.037v1.076
							C65.898,54.51,65.436,54.975,64.861,54.975z"/>
					</g>
				</g>
			</g>
			<g>
				<g>
					<path fill="#9A2F41" d="M71.715,50.023c-0.576,0-1.039-0.463-1.039-1.037v-0.52c0-0.574,0.463-1.039,1.039-1.039
						c0.574,0,1.037,0.465,1.037,1.039v0.52C72.752,49.561,72.289,50.023,71.715,50.023z"/>
				</g>
			</g>
		</g>
		<g>
			<g>
				<rect x="55.102" y="57.914" fill="#9A2F41" width="9.551" height="2.078"/>
			</g>
		</g>
		<g>
			<g>
				<rect x="47" y="47" fill="#9A2F41" width="11.424" height="2.078"/>
			</g>
		</g>
		<g>
			<g>
				<g>
					<path fill="#9A2F41" d="M64.859,49.078h-1.244c-0.574,0-1.037-0.467-1.037-1.039c0-0.574,0.463-1.039,1.037-1.039h1.244
						c0.574,0,1.037,0.465,1.037,1.039C65.896,48.611,65.434,49.078,64.859,49.078z"/>
				</g>
			</g>
			<g>
				<g>
					<path fill="#9A2F41" d="M68.75,49.078h-0.924c-0.574,0-1.039-0.467-1.039-1.039c0-0.574,0.465-1.039,1.039-1.039h0.924
						c0.572,0,1.037,0.465,1.037,1.039C69.787,48.611,69.322,49.078,68.75,49.078z"/>
				</g>
			</g>
			<g>
				<g>
					<path fill="#9A2F41" d="M72.961,49.078h-1.246c-0.574,0-1.039-0.467-1.039-1.039c0-0.574,0.465-1.039,1.039-1.039h1.246
						C73.535,47,74,47.465,74,48.039C74,48.611,73.535,49.078,72.961,49.078z"/>
				</g>
			</g>
		</g>
	</g>
</g>
<g>
	<g>
		<g>
			<g>
				<path fill="#9A2F41" d="M111,51.512c0-2.494-2.018-4.512-4.503-4.512c-2.488,0-4.508,2.018-4.508,4.512
					c0,2.104,1.439,3.869,3.387,4.369v3.504h-3.472c-0.504-1.965-2.273-3.416-4.391-3.416c-2.113,0-3.884,1.451-4.387,3.416h-5.811
					v5.801C85.405,65.695,84,67.438,84,69.516C84,71.988,86.002,74,88.474,74c2.473,0,4.479-2.012,4.479-4.484
					c0-2.102-1.444-3.863-3.389-4.352v-3.529h3.565c0.501,1.961,2.273,3.416,4.385,3.416c2.117,0,3.885-1.455,4.389-3.416h5.718
					v-5.76C109.562,55.375,111,53.615,111,51.512z M90.717,69.516c0,1.232-1,2.236-2.234,2.236c-1.23,0-2.238-1.004-2.238-2.236
					c0-1.234,1.008-2.238,2.238-2.238C89.717,67.277,90.717,68.281,90.717,69.516z M89.574,66.277L89.574,66.277L89.574,66.277z
					 M97.539,62.797c-1.26,0-2.287-1.023-2.287-2.289c0-1.262,1.027-2.291,2.287-2.291c1.264,0,2.291,1.029,2.291,2.291
					C99.83,61.773,98.803,62.797,97.539,62.797z M106.539,53.775c-1.25,0-2.264-1.018-2.264-2.264c0-1.248,1.014-2.264,2.264-2.264
					c1.248,0,2.262,1.016,2.262,2.264C108.801,52.758,107.787,53.775,106.539,53.775z"/>
			</g>
		</g>
		<line fill="#9A2F41" x1="89.658" y1="66.277" x2="89.658" y2="66.277"/>
	</g>
</g>
<g>
	<g>
		<g>
			<path fill-rule="evenodd" clip-rule="evenodd" fill="#9A2F41" d="M37,51.936c0-0.162-0.01-0.32-0.041-0.484
				c-0.172-0.863-0.895-1.516-1.752-1.529c-1.041-0.018-3.886-0.002-4.927-0.008c-0.147,0-0.204,0.045-0.202,0.197
				c0.005,0.51,0.007,1.016-0.001,1.523c-0.002,0.17,0.079,0.184,0.212,0.184c0.758-0.006,3.323-0.002,4.081,0
				c0.553,0,0.779,0.227,0.779,0.783c0,6.795,0,11.943,0,18.732c-0.002,0.523-0.234,0.764-0.744,0.764c-1.876,0-19.932,0-21.81,0
				c-0.505,0-0.74-0.24-0.742-0.764c0-6.789,0-11.938,0-18.732c0-0.557,0.227-0.783,0.779-0.783c0.759-0.002,3.324-0.006,4.082,0
				c0.132,0,0.215-0.014,0.21-0.184c-0.009-0.508-0.006-1.014-0.001-1.523c0.001-0.152-0.053-0.197-0.202-0.197
				c-1.04,0.006-3.887-0.01-4.927,0.008c-0.858,0.014-1.581,0.666-1.751,1.529C10.01,51.615,10,51.773,10,51.936
				c0,7.24,0.001,12.828,0,20.068c0,0.723,0.277,1.291,0.863,1.701c0.206,0.143,0.446,0.195,0.67,0.295c1.142,0,22.793,0,23.934,0
				c0.223-0.1,0.465-0.152,0.67-0.295C36.722,73.295,37,72.727,37,72.004C37,64.764,37,59.176,37,51.936z"/>
		</g>
		<g>
			<g>
				<path fill-rule="evenodd" clip-rule="evenodd" fill="#9A2F41" d="M23.831,47c0.65,0.248,1.104,0.662,1.188,1.395
					c0.019,0.182,0.156,0.123,0.251,0.123c0.625,0.006,1.256,0,1.884,0.002c0.708,0.004,1.164,0.445,1.167,1.148
					c0.008,0.75,0.006,1.5,0.001,2.248c-0.003,0.365-0.087,0.453-0.444,0.455c-2.922,0-5.84,0-8.762,0
					c-0.356-0.002-0.441-0.088-0.442-0.455c-0.002-0.752-0.005-1.5,0-2.248c0.006-0.703,0.458-1.145,1.169-1.148
					c0.627-0.002,1.255,0.004,1.884-0.002c0.096,0,0.233,0.059,0.251-0.123c0.083-0.732,0.539-1.146,1.188-1.395
					C23.39,47,23.61,47,23.831,47z M24.213,48.529c0.006-0.375-0.333-0.721-0.709-0.723c-0.377-0.004-0.72,0.338-0.716,0.717
					c0.001,0.365,0.324,0.697,0.692,0.711C23.854,49.244,24.205,48.906,24.213,48.529z"/>
			</g>
		</g>
		<g>
			<path fill-rule="evenodd" clip-rule="evenodd" fill="#9A2F41" d="M23.877,60.365c-1.943,0-4.892,0-6.837,0
				c-0.302,0-0.425-0.33-0.368-0.934c0.033-0.336,0.117-0.547,0.279-0.547c0.054,0,0.11,0,0.164,0c3.845,0,8.693,0,12.538,0
				c0.185,0,0.375-0.043,0.434,0.498c0.067,0.646-0.057,0.982-0.373,0.982C27.77,60.365,25.824,60.365,23.877,60.365z"/>
		</g>
		<g>
			<path fill-rule="evenodd" clip-rule="evenodd" fill="#9A2F41" d="M23.873,55.037c1.944,0,3.89,0,5.835,0
				c0.307,0,0.404,0.227,0.384,0.85c-0.015,0.406-0.104,0.637-0.295,0.623c-0.044,0-0.089,0.004-0.135,0.004
				c-3.853,0-8.711-0.004-12.564,0c-0.203,0.01-0.388-0.008-0.427-0.58c-0.043-0.609,0.079-0.896,0.392-0.896
				C18.998,55.037,21.938,55.037,23.873,55.037z"/>
		</g>
		<g>
			<path fill-rule="evenodd" clip-rule="evenodd" fill="#9A2F41" d="M20.778,64.211c-0.906,0-2.813-0.006-3.717,0.01
				c-0.233,0-0.396-0.107-0.396-0.711c-0.003-0.562,0.104-0.781,0.4-0.781c1.808,0,4.622,0.006,6.43-0.002
				c0.235,0,0.393,0.143,0.396,0.73c0.006,0.576-0.084,0.754-0.4,0.754C22.587,64.215,21.682,64.211,20.778,64.211z"/>
		</g>
	</g>
</g>
<g>
	<g>
		<g>
			<g>
				<g>
					<path fill="#CCCCCC" d="M52.711,111c-2.461,0-4.463-2.004-4.463-4.471V89.4c0-0.574,0.463-1.039,1.037-1.039h6.854
						c0.574,0,1.039,0.465,1.039,1.039v17.129C57.178,108.996,55.174,111,52.711,111z M50.324,90.438v16.092
						c0,1.322,1.07,2.393,2.387,2.393c1.318,0,2.391-1.07,2.391-2.393V90.438H50.324z"/>
				</g>
			</g>
		</g>
		<g>
			<g>
				<g>
					<path fill="#CCCCCC" d="M56.139,90.438h-6.854c-0.574,0-1.037-0.463-1.037-1.037v-4.361c0-0.574,0.463-1.039,1.037-1.039h6.854
						c0.574,0,1.039,0.465,1.039,1.039V89.4C57.178,89.975,56.713,90.438,56.139,90.438z M50.324,88.361h4.777v-2.283h-4.777V88.361
						z"/>
				</g>
			</g>
		</g>
		<g>
			<g>
				<g>
					<path fill="#CCCCCC" d="M64.861,87.023c-0.574,0-1.039-0.463-1.039-1.037v-0.52c0-0.574,0.465-1.039,1.039-1.039
						s1.037,0.465,1.037,1.039v0.52C65.898,86.561,65.436,87.023,64.861,87.023z"/>
				</g>
			</g>
			<g>
				<g>
					<g>
						<path fill="#CCCCCC" d="M68.289,111c-0.242,0-0.479-0.02-0.711-0.057c-0.566-0.092-0.951-0.623-0.859-1.189
							c0.09-0.566,0.627-0.953,1.189-0.861c0.242,0.035,0.504,0.041,0.748,0.004c0.578-0.088,1.096,0.303,1.184,0.867
							c0.086,0.568-0.299,1.098-0.867,1.186C68.75,110.982,68.521,111,68.289,111z M71.672,108.125
							c-0.055,0-0.111-0.002-0.168-0.014c-0.566-0.09-0.953-0.623-0.859-1.191c0.02-0.127,0.031-0.254,0.031-0.391v-0.514
							c0-0.574,0.463-1.039,1.039-1.039c0.574,0,1.037,0.465,1.037,1.039v0.514c0,0.25-0.02,0.49-0.057,0.727
							C72.613,107.764,72.17,108.125,71.672,108.125z M64.9,108.104c-0.502,0-0.941-0.365-1.023-0.875
							c-0.037-0.229-0.055-0.459-0.055-0.699v-0.535c0-0.576,0.465-1.039,1.039-1.039s1.037,0.463,1.037,1.039v0.535
							c0,0.129,0.012,0.254,0.031,0.377c0.086,0.564-0.299,1.096-0.865,1.188C65.008,108.102,64.957,108.104,64.9,108.104z
							 M71.715,102.75c-0.576,0-1.039-0.463-1.039-1.037v-1.076c0-0.574,0.463-1.037,1.039-1.037c0.574,0,1.037,0.463,1.037,1.037
							v1.076C72.752,102.287,72.289,102.75,71.715,102.75z M64.861,102.729c-0.574,0-1.039-0.463-1.039-1.037v-1.076
							c0-0.574,0.465-1.037,1.039-1.037s1.037,0.463,1.037,1.037v1.076C65.898,102.266,65.436,102.729,64.861,102.729z
							 M71.715,97.371c-0.576,0-1.039-0.465-1.039-1.039v-1.074c0-0.574,0.463-1.037,1.039-1.037c0.574,0,1.037,0.463,1.037,1.037
							v1.074C72.752,96.906,72.289,97.371,71.715,97.371z M64.861,97.352c-0.574,0-1.039-0.463-1.039-1.039v-1.076
							c0-0.572,0.465-1.037,1.039-1.037s1.037,0.465,1.037,1.037v1.076C65.898,96.889,65.436,97.352,64.861,97.352z M71.715,91.994
							c-0.576,0-1.039-0.465-1.039-1.039v-1.074c0-0.574,0.463-1.039,1.039-1.039c0.574,0,1.037,0.465,1.037,1.039v1.074
							C72.752,91.529,72.289,91.994,71.715,91.994z M64.861,91.975c-0.574,0-1.039-0.465-1.039-1.039v-1.076
							c0-0.574,0.465-1.037,1.039-1.037s1.037,0.463,1.037,1.037v1.076C65.898,91.51,65.436,91.975,64.861,91.975z"/>
					</g>
				</g>
			</g>
			<g>
				<g>
					<path fill="#CCCCCC" d="M71.715,87.023c-0.576,0-1.039-0.463-1.039-1.037v-0.52c0-0.574,0.463-1.039,1.039-1.039
						c0.574,0,1.037,0.465,1.037,1.039v0.52C72.752,86.561,72.289,87.023,71.715,87.023z"/>
				</g>
			</g>
		</g>
		<g>
			<g>
				<rect x="55.102" y="94.914" fill="#CCCCCC" width="9.551" height="2.078"/>
			</g>
		</g>
		<g>
			<g>
				<rect x="47" y="84" fill="#CCCCCC" width="11.424" height="2.078"/>
			</g>
		</g>
		<g>
			<g>
				<g>
					<path fill="#CCCCCC" d="M64.859,86.078h-1.244c-0.574,0-1.037-0.467-1.037-1.039c0-0.574,0.463-1.039,1.037-1.039h1.244
						c0.574,0,1.037,0.465,1.037,1.039C65.896,85.611,65.434,86.078,64.859,86.078z"/>
				</g>
			</g>
			<g>
				<g>
					<path fill="#CCCCCC" d="M68.75,86.078h-0.924c-0.574,0-1.039-0.467-1.039-1.039c0-0.574,0.465-1.039,1.039-1.039h0.924
						c0.572,0,1.037,0.465,1.037,1.039C69.787,85.611,69.322,86.078,68.75,86.078z"/>
				</g>
			</g>
			<g>
				<g>
					<path fill="#CCCCCC" d="M72.961,86.078h-1.246c-0.574,0-1.039-0.467-1.039-1.039c0-0.574,0.465-1.039,1.039-1.039h1.246
						C73.535,84,74,84.465,74,85.039C74,85.611,73.535,86.078,72.961,86.078z"/>
				</g>
			</g>
		</g>
	</g>
</g>
<g>
	<g>
		<g>
			<g>
				<path fill="#CCCCCC" d="M111,88.512c0-2.494-2.018-4.512-4.503-4.512c-2.488,0-4.508,2.018-4.508,4.512
					c0,2.104,1.439,3.869,3.387,4.369v3.504h-3.472c-0.504-1.965-2.273-3.416-4.391-3.416c-2.113,0-3.884,1.451-4.387,3.416h-5.811
					v5.801c-1.911,0.51-3.316,2.252-3.316,4.33c0,2.473,2.002,4.484,4.474,4.484c2.473,0,4.479-2.012,4.479-4.484
					c0-2.102-1.444-3.863-3.389-4.352v-3.529h3.565c0.501,1.961,2.273,3.416,4.385,3.416c2.117,0,3.885-1.455,4.389-3.416h5.718
					v-5.76C109.562,92.375,111,90.615,111,88.512z M90.717,106.516c0,1.232-1,2.236-2.234,2.236c-1.23,0-2.238-1.004-2.238-2.236
					c0-1.234,1.008-2.238,2.238-2.238C89.717,104.277,90.717,105.281,90.717,106.516z M89.574,103.277L89.574,103.277
					L89.574,103.277z M97.539,99.797c-1.26,0-2.287-1.023-2.287-2.289c0-1.262,1.027-2.291,2.287-2.291
					c1.264,0,2.291,1.029,2.291,2.291C99.83,98.773,98.803,99.797,97.539,99.797z M106.539,90.775c-1.25,0-2.264-1.018-2.264-2.264
					c0-1.248,1.014-2.264,2.264-2.264c1.248,0,2.262,1.016,2.262,2.264C108.801,89.758,107.787,90.775,106.539,90.775z"/>
			</g>
		</g>
		<line fill="#CCCCCC" x1="89.658" y1="103.277" x2="89.658" y2="103.277"/>
	</g>
</g>
<g>
	<g>
		<g>
			<path fill-rule="evenodd" clip-rule="evenodd" fill="#CCCCCC" d="M37,88.936c0-0.162-0.01-0.32-0.041-0.484
				c-0.172-0.863-0.895-1.516-1.752-1.529c-1.041-0.018-3.886-0.002-4.927-0.008c-0.147,0-0.204,0.045-0.202,0.197
				c0.005,0.51,0.007,1.016-0.001,1.523c-0.002,0.17,0.079,0.184,0.212,0.184c0.758-0.006,3.323-0.002,4.081,0
				c0.553,0,0.779,0.227,0.779,0.783c0,6.795,0,11.943,0,18.732c-0.002,0.523-0.234,0.764-0.744,0.764c-1.876,0-19.932,0-21.81,0
				c-0.505,0-0.74-0.24-0.742-0.764c0-6.789,0-11.938,0-18.732c0-0.557,0.227-0.783,0.779-0.783c0.759-0.002,3.324-0.006,4.082,0
				c0.132,0,0.215-0.014,0.21-0.184c-0.009-0.508-0.006-1.014-0.001-1.523c0.001-0.152-0.053-0.197-0.202-0.197
				c-1.04,0.006-3.887-0.01-4.927,0.008c-0.858,0.014-1.581,0.666-1.751,1.529C10.01,88.615,10,88.773,10,88.936
				c0,7.24,0.001,12.828,0,20.068c0,0.723,0.277,1.291,0.863,1.701c0.206,0.143,0.446,0.195,0.67,0.295c1.142,0,22.793,0,23.934,0
				c0.223-0.1,0.465-0.152,0.67-0.295c0.586-0.41,0.863-0.979,0.863-1.701C37,101.764,37,96.176,37,88.936z"/>
		</g>
		<g>
			<g>
				<path fill-rule="evenodd" clip-rule="evenodd" fill="#CCCCCC" d="M23.831,84c0.65,0.248,1.104,0.662,1.188,1.395
					c0.019,0.182,0.156,0.123,0.251,0.123c0.625,0.006,1.256,0,1.884,0.002c0.708,0.004,1.164,0.445,1.167,1.148
					c0.008,0.75,0.006,1.5,0.001,2.248c-0.003,0.365-0.087,0.453-0.444,0.455c-2.922,0-5.84,0-8.762,0
					c-0.356-0.002-0.441-0.088-0.442-0.455c-0.002-0.752-0.005-1.5,0-2.248c0.006-0.703,0.458-1.145,1.169-1.148
					c0.627-0.002,1.255,0.004,1.884-0.002c0.096,0,0.233,0.059,0.251-0.123c0.083-0.732,0.539-1.146,1.188-1.395
					C23.39,84,23.61,84,23.831,84z M24.213,85.529c0.006-0.375-0.333-0.721-0.709-0.723c-0.377-0.004-0.72,0.338-0.716,0.717
					c0.001,0.365,0.324,0.697,0.692,0.711C23.854,86.244,24.205,85.906,24.213,85.529z"/>
			</g>
		</g>
		<g>
			<path fill-rule="evenodd" clip-rule="evenodd" fill="#CCCCCC" d="M23.877,97.365c-1.943,0-4.892,0-6.837,0
				c-0.302,0-0.425-0.33-0.368-0.934c0.033-0.336,0.117-0.547,0.279-0.547c0.054,0,0.11,0,0.164,0c3.845,0,8.693,0,12.538,0
				c0.185,0,0.375-0.043,0.434,0.498c0.067,0.646-0.057,0.982-0.373,0.982C27.77,97.365,25.824,97.365,23.877,97.365z"/>
		</g>
		<g>
			<path fill-rule="evenodd" clip-rule="evenodd" fill="#CCCCCC" d="M23.873,92.037c1.944,0,3.89,0,5.835,0
				c0.307,0,0.404,0.227,0.384,0.85c-0.015,0.406-0.104,0.637-0.295,0.623c-0.044,0-0.089,0.004-0.135,0.004
				c-3.853,0-8.711-0.004-12.564,0c-0.203,0.01-0.388-0.008-0.427-0.58c-0.043-0.609,0.079-0.896,0.392-0.896
				C18.998,92.037,21.938,92.037,23.873,92.037z"/>
		</g>
		<g>
			<path fill-rule="evenodd" clip-rule="evenodd" fill="#CCCCCC" d="M20.778,101.211c-0.906,0-2.813-0.006-3.717,0.01
				c-0.233,0-0.396-0.107-0.396-0.711c-0.003-0.562,0.104-0.781,0.4-0.781c1.808,0,4.622,0.006,6.43-0.002
				c0.235,0,0.393,0.143,0.396,0.73c0.006,0.576-0.084,0.754-0.4,0.754C22.587,101.215,21.682,101.211,20.778,101.211z"/>
		</g>
	</g>
</g>
</svg>
