<svg id="Layer_1" xmlns="http://www.w3.org/2000/svg" viewBox="0 0 120 120"><style>.st0{fill:#5D8942;} .st1{fill:none;} .st2{fill:#9B3042;} .st3{fill:#CDCCCC;}</style><g id="XMLID_2_"><g id="XMLID_3_"><g id="XMLID_15_"><path id="XMLID_16_" class="st0" d="M33.4 11.5V11c-.2-.9-.9-1.5-1.7-1.5h-4.9c-.1 0-.2 0-.2.2v1.5c0 .2.1.2.2.2h4c.5 0 .8.2.8.8v18.6c0 .5-.2.8-.7.8H9.3c-.5 0-.7-.2-.7-.8V12.2c0-.6.2-.8.8-.8h4c.1 0 .2 0 .2-.2V9.7c0-.2-.1-.2-.2-.2H8.5c-.9 0-1.6.7-1.7 1.5v20.4c0 .7.3 1.3.9 1.7.2.1.4.2.7.3h23.7c.2-.1.5-.2.7-.3.6-.4.9-1 .9-1.7-.3-7.2-.3-12.7-.3-19.9z"/></g><g id="XMLID_10_"><g id="XMLID_11_"><path id="XMLID_12_" class="st0" d="M20.3 6.6c.7.3 1.1.7 1.2 1.4 0 .2.2.1.2.1h1.9c.7 0 1.2.4 1.2 1.1v2.2c0 .4-.1.4-.4.5h-8.7c-.4 0-.4-.1-.4-.5V9.2c0-.7.5-1.1 1.2-1.1h1.9c.1 0 .2.1.2-.1.1-.7.5-1.1 1.2-1.4h.5zm.4 1.5c0-.4-.3-.7-.7-.7-.4 0-.7.3-.7.7 0 .4.3.7.7.7.4 0 .7-.3.7-.7z"/></g></g><g id="XMLID_8_"><path id="XMLID_9_" class="st0" d="M20.4 19.9h-6.8c-.3 0-.4-.3-.4-.9 0-.3.1-.5.3-.5h12.6c.2 0 .4 0 .4.5.1.6-.1 1-.4 1-1.9-.1-3.8-.1-5.7-.1z"/></g><g id="XMLID_6_"><path id="XMLID_7_" class="st0" d="M20.4 14.6h5.8c.3 0 .4.2.4.8 0 .4-.1.6-.3.6H13.7c-.2 0-.4 0-.4-.6s.1-.9.4-.9c1.8.1 4.8.1 6.7.1z"/></g><g id="XMLID_4_"><path id="XMLID_5_" class="st0" d="M17.3 23.7h-3.7c-.2 0-.4-.1-.4-.7s.1-.8.4-.8H20c.2 0 .4.1.4.7s-.1.7-.4.7c-.9.1-1.8.1-2.7.1z"/></g></g></g><path class="st0" d="M52.3 33.4c-2.4 0-4.4-2-4.4-4.4V12c0-.6.5-1 1-1h6.8c.6 0 1 .5 1 1v17c0 2.4-2 4.4-4.4 4.4zM49.9 13v16c0 1.3 1.1 2.4 2.4 2.4 1.3 0 2.4-1.1 2.4-2.4V13h-4.8z"/><path class="st0" d="M55.7 13h-6.8c-.6 0-1-.5-1-1V7.6c0-.6.5-1 1-1h6.8c.6 0 1 .5 1 1V12c0 .5-.5 1-1 1zm-5.8-2.1h4.7V8.7h-4.7v2.2z"/><path id="XMLID_31_" class="st0" d="M64.3 9.6c-.6 0-1-.5-1-1v-.5c0-.6.5-1 1-1s1 .5 1 1v.5c.1.6-.4 1-1 1z"/><path class="st0" d="M67.7 33.4c-.2 0-.5 0-.7-.1-.6-.1-.9-.6-.9-1.2.1-.6.6-.9 1.2-.9h.7c.6-.1 1.1.3 1.2.9.1.6-.3 1.1-.9 1.2-.1.1-.3.1-.6.1zm3.4-2.9h-.2c-.6-.1-.9-.6-.9-1.2v-.9c0-.6.5-1 1-1 .6 0 1 .5 1 1v.6c0 .2 0 .5-.1.7.1.5-.3.8-.8.8zm-6.7 0c-.5 0-.9-.4-1-.9 0-.2-.1-.5-.1-.7v-.5c0-.6.5-1 1-1s1 .5 1 1v1c.1.6-.3 1.1-.9 1.2.1-.1 0-.1 0-.1zm6.7-5.3c-.6 0-1-.5-1-1v-1.1c0-.6.5-1 1-1 .6 0 1 .5 1 1v1.1c.1.5-.4 1-1 1zm-6.8 0c-.6 0-1-.5-1-1v-1.1c0-.6.5-1 1-1s1 .5 1 1v1.1c.1.5-.4 1-1 1zm6.8-5.3c-.6 0-1-.5-1-1v-1.1c0-.6.5-1 1-1 .6 0 1 .5 1 1v1.1c.1.5-.4 1-1 1zm-6.8 0c-.6 0-1-.5-1-1v-1.1c0-.6.5-1 1-1s1 .5 1 1v1.1c.1.5-.4 1-1 1zm6.8-5.4c-.6 0-1-.5-1-1v-1.1c0-.6.5-1 1-1 .6 0 1 .5 1 1v1.1c.1.6-.4 1-1 1zm-6.8 0c-.6 0-1-.5-1-1v-1.1c0-.6.5-1 1-1s1 .5 1 1v1.1c.1.6-.4 1-1 1z"/><path id="XMLID_21_" class="st0" d="M71.1 9.6c-.6 0-1-.5-1-1v-.5c0-.6.5-1 1-1 .6 0 1 .5 1 1v.5c.1.6-.4 1-1 1z"/><path id="XMLID_20_" class="st0" d="M54.6 17.4h9.5v2.1h-9.5z"/><path id="XMLID_19_" class="st0" d="M46.6 6.6h11.3v2.1H46.6z"/><path id="XMLID_18_" class="st0" d="M64.3 8.7h-1.2c-.6 0-1-.5-1-1 0-.6.5-1 1-1h1.2c.6 0 1 .5 1 1 .1.5-.4 1-1 1z"/><path id="XMLID_17_" class="st0" d="M68.2 8.7h-.9c-.6 0-1-.5-1-1 0-.6.5-1 1-1h.9c.6 0 1 .5 1 1s-.5 1-1 1z"/><path id="XMLID_1_" class="st0" d="M72.4 8.7h-1.2c-.6 0-1-.5-1-1 0-.6.5-1 1-1h1.2c.6 0 1 .5 1 1s-.5 1-1 1z"/><g><path class="st0" d="M113.4 11.1c0-2.5-2-4.5-4.5-4.5s-4.5 2-4.5 4.5c0 2.1 1.4 3.8 3.4 4.3v3.5h-3.4c-.5-1.9-2.3-3.4-4.4-3.4-2.1 0-3.9 1.4-4.4 3.4h-5.8v5.8c-1.9.5-3.3 2.2-3.3 4.3 0 2.5 2 4.4 4.4 4.4 2.5 0 4.4-2 4.4-4.4 0-2.1-1.4-3.8-3.4-4.3v-3.5h3.5c.5 1.9 2.3 3.4 4.3 3.4 2.1 0 3.9-1.4 4.4-3.4h5.7v-5.7c2.2-.6 3.6-2.3 3.6-4.4zM93.3 28.9c0 1.2-1 2.2-2.2 2.2-1.2 0-2.2-1-2.2-2.2 0-1.2 1-2.2 2.2-2.2 1.2 0 2.2 1 2.2 2.2zm-1.2-3.2zm7.9-3.4c-1.2 0-2.3-1-2.3-2.3 0-1.3 1-2.3 2.3-2.3 1.3 0 2.3 1 2.3 2.3 0 1.3-1 2.3-2.3 2.3zm9-9c-1.2 0-2.2-1-2.2-2.2s1-2.2 2.2-2.2c1.2 0 2.2 1 2.2 2.2s-1 2.2-2.2 2.2z"/><path id="XMLID_36_" class="st1" d="M92.2 25.7"/></g><g><path id="XMLID_47_" class="st2" d="M33.4 51.5V51c-.2-.9-.9-1.5-1.7-1.5h-4.9c-.1 0-.2 0-.2.2v1.5c0 .2.1.2.2.2h4c.5 0 .8.2.8.8v18.6c0 .5-.2.8-.7.8H9.3c-.5 0-.7-.2-.7-.8V52.2c0-.6.2-.8.8-.8h4c.1 0 .2 0 .2-.2v-1.5c0-.2-.1-.2-.2-.2H8.5c-.9 0-1.6.7-1.7 1.5v20.4c0 .7.3 1.3.9 1.7.2.1.4.2.7.3h23.7c.2-.1.5-.2.7-.3.6-.4.9-1 .9-1.7-.3-7.2-.3-12.7-.3-19.9z"/><path class="st2" d="M20.3 46.6c.6.2 1.1.7 1.2 1.4 0 .2.2.1.2.1h1.9c.7 0 1.2.4 1.2 1.1v2.2c0 .4-.1.4-.4.5h-8.7c-.4 0-.4-.1-.4-.5v-2.2c0-.7.5-1.1 1.2-1.1h1.9c.1 0 .2.1.2-.1.1-.7.5-1.1 1.2-1.4h.5zm.4 1.5c0-.4-.3-.7-.7-.7-.4 0-.7.3-.7.7 0 .4.3.7.7.7.4 0 .7-.3.7-.7z"/><path id="XMLID_44_" class="st2" d="M20.4 59.9h-6.8c-.3 0-.4-.3-.4-.9 0-.3.1-.5.3-.5h12.6c.2 0 .4 0 .4.5.1.6-.1 1-.4 1-1.9-.1-3.8-.1-5.7-.1z"/><path id="XMLID_43_" class="st2" d="M20.4 54.6h5.8c.3 0 .4.2.4.8 0 .4-.1.6-.3.6H13.7c-.2 0-.4 0-.4-.6s.1-.9.4-.9c1.8.1 4.8.1 6.7.1z"/><path id="XMLID_42_" class="st2" d="M17.3 63.7h-3.7c-.2 0-.4-.1-.4-.7s.1-.8.4-.8H20c.2 0 .4.1.4.7s-.1.7-.4.7c-.9.1-1.8.1-2.7.1z"/></g><g><path id="XMLID_53_" class="st3" d="M33.4 91.5V91c-.2-.9-.9-1.5-1.7-1.5h-4.9c-.1 0-.2 0-.2.2v1.5c0 .2.1.2.2.2h4c.5 0 .8.2.8.8v18.6c0 .5-.2.8-.7.8H9.3c-.5 0-.7-.2-.7-.8V92.2c0-.6.2-.8.8-.8h4c.1 0 .2 0 .2-.2v-1.5c0-.2-.1-.2-.2-.2H8.5c-.9 0-1.6.7-1.7 1.5v20.4c0 .7.3 1.3.9 1.7.2.1.4.2.7.3h23.7c.2-.1.5-.2.7-.3.6-.4.9-1 .9-1.7-.3-7.2-.3-12.7-.3-19.9z"/><path class="st3" d="M20.3 86.6c.6.2 1.1.7 1.2 1.4 0 .2.2.1.2.1h1.9c.7 0 1.2.4 1.2 1.1v2.2c0 .4-.1.4-.4.5h-8.7c-.4 0-.4-.1-.4-.5v-2.2c0-.7.5-1.1 1.2-1.1h1.9c.1 0 .2.1.2-.1.1-.7.5-1.1 1.2-1.4h.5zm.4 1.5c0-.4-.3-.7-.7-.7-.4 0-.7.3-.7.7 0 .4.3.7.7.7.4 0 .7-.3.7-.7z"/><path id="XMLID_50_" class="st3" d="M20.4 99.9h-6.8c-.3 0-.4-.3-.4-.9 0-.3.1-.5.3-.5h12.6c.2 0 .4 0 .4.5.1.6-.1 1-.4 1-1.9-.1-3.8-.1-5.7-.1z"/><path id="XMLID_49_" class="st3" d="M20.4 94.6h5.8c.3 0 .4.2.4.8 0 .4-.1.6-.3.6H13.7c-.2 0-.4 0-.4-.6s.1-.9.4-.9c1.8.1 4.8.1 6.7.1z"/><path id="XMLID_48_" class="st3" d="M17.3 103.7h-3.7c-.2 0-.4-.1-.4-.7s.1-.8.4-.8H20c.2 0 .4.1.4.7s-.1.7-.4.7c-.9.1-1.8.1-2.7.1z"/></g><g><path class="st2" d="M52.3 73.4c-2.4 0-4.4-2-4.4-4.4V52c0-.6.5-1 1-1h6.8c.6 0 1 .5 1 1v17c0 2.4-2 4.4-4.4 4.4zM49.9 53v16c0 1.3 1.1 2.4 2.4 2.4 1.3 0 2.4-1.1 2.4-2.4V53h-4.8z"/><path class="st2" d="M55.7 53h-6.8c-.6 0-1-.5-1-1v-4.3c0-.6.5-1 1-1h6.8c.6 0 1 .5 1 1V52c0 .5-.5 1-1 1zm-5.8-2.1h4.7v-2.3h-4.7v2.3z"/><path id="XMLID_69_" class="st2" d="M64.3 49.6c-.6 0-1-.5-1-1v-.5c0-.6.5-1 1-1s1 .5 1 1v.5c.1.6-.4 1-1 1z"/><path class="st2" d="M67.7 73.4c-.2 0-.5 0-.7-.1-.6-.1-.9-.6-.9-1.2.1-.6.6-.9 1.2-.9h.7c.6-.1 1.1.3 1.2.9.1.6-.3 1.1-.9 1.2-.1.1-.3.1-.6.1zm3.4-2.9h-.2c-.6-.1-.9-.6-.9-1.2v-.9c0-.6.5-1 1-1 .6 0 1 .5 1 1v.6c0 .2 0 .5-.1.7.1.5-.3.8-.8.8zm-6.7 0c-.5 0-.9-.4-1-.9 0-.2-.1-.5-.1-.7v-.5c0-.6.5-1 1-1s1 .5 1 1v1c.1.6-.3 1.1-.9 1.2.1-.1 0-.1 0-.1zm6.7-5.3c-.6 0-1-.5-1-1v-1.1c0-.6.5-1 1-1 .6 0 1 .5 1 1v1.1c.1.5-.4 1-1 1zm-6.8 0c-.6 0-1-.5-1-1v-1.1c0-.6.5-1 1-1s1 .5 1 1v1.1c.1.5-.4 1-1 1zm6.8-5.3c-.6 0-1-.5-1-1v-1.1c0-.6.5-1 1-1 .6 0 1 .5 1 1v1.1c.1.5-.4 1-1 1zm-6.8 0c-.6 0-1-.5-1-1v-1.1c0-.6.5-1 1-1s1 .5 1 1v1.1c.1.5-.4 1-1 1zm6.8-5.4c-.6 0-1-.5-1-1v-1.1c0-.6.5-1 1-1 .6 0 1 .5 1 1v1.1c.1.6-.4 1-1 1zm-6.8 0c-.6 0-1-.5-1-1v-1.1c0-.6.5-1 1-1s1 .5 1 1v1.1c.1.6-.4 1-1 1z"/><path id="XMLID_59_" class="st2" d="M71.1 49.6c-.6 0-1-.5-1-1v-.5c0-.6.5-1 1-1 .6 0 1 .5 1 1v.5c.1.6-.4 1-1 1z"/><path id="XMLID_58_" class="st2" d="M54.6 57.4h9.5v2.1h-9.5z"/><g><path id="XMLID_57_" class="st2" d="M46.6 46.6h11.3v2.1H46.6z"/></g><g><path id="XMLID_56_" class="st2" d="M64.3 48.7h-1.2c-.6 0-1-.5-1-1 0-.6.5-1 1-1h1.2c.6 0 1 .5 1 1 .1.5-.4 1-1 1z"/><path id="XMLID_55_" class="st2" d="M68.2 48.7h-.9c-.6 0-1-.5-1-1 0-.6.5-1 1-1h.9c.6 0 1 .5 1 1s-.5 1-1 1z"/><path id="XMLID_54_" class="st2" d="M72.4 48.7h-1.2c-.6 0-1-.5-1-1 0-.6.5-1 1-1h1.2c.6 0 1 .5 1 1s-.5 1-1 1z"/></g></g><g><path class="st2" d="M113.4 51.1c0-2.5-2-4.5-4.5-4.5s-4.5 2-4.5 4.5c0 2.1 1.4 3.8 3.4 4.3v3.5h-3.4c-.5-1.9-2.3-3.4-4.4-3.4-2.1 0-3.9 1.4-4.4 3.4h-5.8v5.8c-1.9.5-3.3 2.2-3.3 4.3 0 2.5 2 4.4 4.4 4.4 2.5 0 4.4-2 4.4-4.4 0-2.1-1.4-3.8-3.4-4.3v-3.5h3.5c.5 1.9 2.3 3.4 4.3 3.4 2.1 0 3.9-1.4 4.4-3.4h5.7v-5.7c2.2-.6 3.6-2.3 3.6-4.4zM93.3 68.9c0 1.2-1 2.2-2.2 2.2-1.2 0-2.2-1-2.2-2.2 0-1.2 1-2.2 2.2-2.2 1.2 0 2.2 1 2.2 2.2zm-1.2-3.2zm7.9-3.4c-1.2 0-2.3-1-2.3-2.3 0-1.3 1-2.3 2.3-2.3 1.3 0 2.3 1 2.3 2.3 0 1.3-1 2.3-2.3 2.3zm9-9c-1.2 0-2.2-1-2.2-2.2 0-1.2 1-2.2 2.2-2.2 1.2 0 2.2 1 2.2 2.2 0 1.2-1 2.2-2.2 2.2z"/><path id="XMLID_74_" class="st1" d="M92.2 65.7"/></g><g><path class="st3" d="M52.3 113.4c-2.4 0-4.4-2-4.4-4.4V92c0-.6.5-1 1-1h6.8c.6 0 1 .5 1 1v17c0 2.4-2 4.4-4.4 4.4zM49.9 93v16c0 1.3 1.1 2.4 2.4 2.4 1.3 0 2.4-1.1 2.4-2.4V93h-4.8z"/><path class="st3" d="M55.7 93h-6.8c-.6 0-1-.5-1-1v-4.3c0-.6.5-1 1-1h6.8c.6 0 1 .5 1 1V92c0 .5-.5 1-1 1zm-5.8-2.1h4.7v-2.3h-4.7v2.3z"/><path id="XMLID_95_" class="st3" d="M64.3 89.6c-.6 0-1-.5-1-1v-.5c0-.6.5-1 1-1s1 .5 1 1v.5c.1.6-.4 1-1 1z"/><path class="st3" d="M67.7 113.4c-.2 0-.5 0-.7-.1-.6-.1-.9-.6-.9-1.2.1-.6.6-.9 1.2-.9h.7c.6-.1 1.1.3 1.2.9.1.6-.3 1.1-.9 1.2-.1.1-.3.1-.6.1zm3.4-2.9h-.2c-.6-.1-.9-.6-.9-1.2v-.9c0-.6.5-1 1-1 .6 0 1 .5 1 1v.5c0 .2 0 .5-.1.7.1.6-.3.9-.8.9zm-6.7 0c-.5 0-.9-.4-1-.9 0-.2-.1-.5-.1-.7v-.5c0-.6.5-1 1-1s1 .5 1 1v.9c.1.6-.3 1.1-.9 1.2.1 0 0 0 0 0zm6.7-5.3c-.6 0-1-.5-1-1v-1.1c0-.6.5-1 1-1 .6 0 1 .5 1 1v1.1c.1.5-.4 1-1 1zm-6.8 0c-.6 0-1-.5-1-1v-1.1c0-.6.5-1 1-1s1 .5 1 1v1.1c.1.5-.4 1-1 1zm6.8-5.3c-.6 0-1-.5-1-1v-1.1c0-.6.5-1 1-1 .6 0 1 .5 1 1v1.1c.1.5-.4 1-1 1zm-6.8 0c-.6 0-1-.5-1-1v-1.1c0-.6.5-1 1-1s1 .5 1 1v1.1c.1.5-.4 1-1 1zm6.8-5.4c-.6 0-1-.5-1-1v-1.1c0-.6.5-1 1-1 .6 0 1 .5 1 1v1.1c.1.6-.4 1-1 1zm-6.8 0c-.6 0-1-.5-1-1v-1.1c0-.6.5-1 1-1s1 .5 1 1v1.1c.1.6-.4 1-1 1z"/><path id="XMLID_85_" class="st3" d="M71.1 89.6c-.6 0-1-.5-1-1v-.5c0-.6.5-1 1-1 .6 0 1 .5 1 1v.5c.1.6-.4 1-1 1z"/><path id="XMLID_84_" class="st3" d="M54.6 97.4h9.5v2.1h-9.5z"/><g><path id="XMLID_83_" class="st3" d="M46.6 86.6h11.3v2.1H46.6z"/></g><g><path id="XMLID_82_" class="st3" d="M64.3 88.7h-1.2c-.6 0-1-.5-1-1 0-.6.5-1 1-1h1.2c.6 0 1 .5 1 1 .1.5-.4 1-1 1z"/><path id="XMLID_81_" class="st3" d="M68.2 88.7h-.9c-.6 0-1-.5-1-1 0-.6.5-1 1-1h.9c.6 0 1 .5 1 1s-.5 1-1 1z"/><path id="XMLID_80_" class="st3" d="M72.4 88.7h-1.2c-.6 0-1-.5-1-1 0-.6.5-1 1-1h1.2c.6 0 1 .5 1 1s-.5 1-1 1z"/></g></g><g><path class="st3" d="M113.4 91.1c0-2.5-2-4.5-4.5-4.5s-4.5 2-4.5 4.5c0 2.1 1.4 3.8 3.4 4.3v3.5h-3.4c-.5-1.9-2.3-3.4-4.4-3.4-2.1 0-3.9 1.4-4.4 3.4h-5.8v5.8c-1.9.5-3.3 2.2-3.3 4.3 0 2.5 2 4.4 4.4 4.4 2.5 0 4.4-2 4.4-4.4 0-2.1-1.4-3.8-3.4-4.3v-3.5h3.5c.5 1.9 2.3 3.4 4.3 3.4 2.1 0 3.9-1.4 4.4-3.4h5.7v-5.7c2.2-.6 3.6-2.3 3.6-4.4zm-20.1 17.8c0 1.2-1 2.2-2.2 2.2-1.2 0-2.2-1-2.2-2.2 0-1.2 1-2.2 2.2-2.2 1.2 0 2.2 1 2.2 2.2zm-1.2-3.2zm7.9-3.4c-1.2 0-2.3-1-2.3-2.3 0-1.3 1-2.3 2.3-2.3 1.3 0 2.3 1 2.3 2.3 0 1.3-1 2.3-2.3 2.3zm9-9c-1.2 0-2.2-1-2.2-2.2 0-1.2 1-2.2 2.2-2.2 1.2 0 2.2 1 2.2 2.2 0 1.2-1 2.2-2.2 2.2z"/><path id="XMLID_100_" class="st1" d="M92.2 105.7"/></g></svg>