<?xml version="1.0" encoding="utf-8"?>
<!-- Generator: Adobe Illustrator 16.0.4, SVG Export Plug-In . SVG Version: 6.00 Build 0)  -->
<!DOCTYPE svg PUBLIC "-//W3C//DTD SVG 1.1//EN" "http://www.w3.org/Graphics/SVG/1.1/DTD/svg11.dtd">
<svg version="1.1" id="Layer_1" xmlns="http://www.w3.org/2000/svg" xmlns:xlink="http://www.w3.org/1999/xlink" x="0px" y="0px"
	 width="30px" height="30px" viewBox="0 0 30 30" enable-background="new 0 0 30 30" xml:space="preserve">
<g>
	<path fill="#535454" d="M26.986,7.01c0-2.216-1.796-4.01-4.012-4.01s-4.013,1.794-4.013,4.01c0,1.871,1.283,3.439,3.016,3.884
		v3.116h-3.094c-0.445-1.746-2.023-3.038-3.907-3.038s-3.462,1.292-3.907,3.038h-5.1v5.154c-1.703,0.455-2.956,2.004-2.956,3.848
		C3.014,25.214,4.798,27,6.999,27c2.203,0,3.99-1.785,3.99-3.988c0-1.865-1.287-3.428-3.018-3.863V16.01h3.099
		c0.446,1.744,2.023,3.037,3.906,3.037c1.884,0,3.459-1.291,3.907-3.037h5.095v-5.119C25.707,10.445,26.986,8.88,26.986,7.01z
		 M8.986,23.011C8.986,24.107,8.095,25,6.999,25c-1.094,0-1.986-0.893-1.986-1.988c0-1.094,0.893-1.986,1.986-1.986
		C8.095,21.025,8.986,21.917,8.986,23.011z M7.972,20.136L7.972,20.136L7.972,20.136z M14.977,17.044
		c-1.122,0-2.036-0.913-2.036-2.036c0-1.124,0.914-2.038,2.036-2.038s2.036,0.914,2.036,2.038
		C17.013,16.132,16.099,17.044,14.977,17.044z M22.975,9.022c-1.108,0-2.011-0.903-2.011-2.013c0-1.107,0.902-2.011,2.011-2.011
		s2.013,0.903,2.013,2.011C24.987,8.119,24.083,9.022,22.975,9.022z"/>
	<line fill="#535454" x1="7.972" y1="20.136" x2="7.972" y2="20.136"/>
	<path fill="#D8D9D8" d="M8.986,23.011C8.986,24.107,8.095,25,6.999,25c-1.094,0-1.986-0.893-1.986-1.988
		c0-1.094,0.893-1.986,1.986-1.986C8.095,21.025,8.986,21.917,8.986,23.011z"/>
</g>
</svg>
