<svg xmlns="http://www.w3.org/2000/svg" width="76" height="28" viewBox="0 0 76 28"><path fill="#242D32" d="M12.5 23c-.148 0-.29-.064-.386-.177l-5.492-6.415c-.128-.15-.157-.36-.074-.54.082-.18.263-.294.46-.294h10.985c.197 0 .377.114.46.293.083.18.054.39-.074.54l-5.495 6.416c-.095.113-.237.177-.386.177zm-4.392-6.415l4.392 5.13 4.392-5.13H8.108zm10.27-4.993l-5.49-6.415C12.79 5.064 12.648 5 12.5 5c-.148 0-.29.064-.386.177l-5.492 6.415c-.13.15-.158.36-.075.54.082.18.263.294.46.294H17.99c.2 0 .38-.114.46-.293.085-.18.056-.39-.07-.54zm25.112.826H32.51c-.2 0-.38-.114-.463-.293-.083-.18-.053-.39.075-.54l5.492-6.416c.193-.227.58-.227.77 0l5.493 6.413c.128.15.158.36.075.54-.083.18-.263.294-.46.294zm-9.88-1.01h8.782L38 6.278l-4.39 5.13zm10.344 4.45c-.084-.18-.264-.293-.462-.293h-10.98c-.2 0-.38.114-.463.293-.085.18-.055.39.072.54l5.49 6.416c.098.113.238.177.387.177s.29-.062.385-.175L43.88 16.4c.127-.15.157-.362.074-.542zM68.99 12.418H58.01c-.2 0-.38-.114-.462-.293-.082-.18-.054-.39.075-.54l5.494-6.416c.19-.227.578-.227.77 0l5.492 6.413c.13.15.16.36.075.54-.083.18-.262.294-.46.294zm-9.883-1.01h8.783l-4.392-5.13-4.39 5.13zM63.5 22.992c-.15 0-.29-.064-.387-.177L57.62 16.4c-.127-.15-.155-.36-.073-.54.083-.18.263-.294.462-.294h10.98c.2 0 .378.114.46.293.084.18.056.39-.075.54l-5.492 6.414c-.096.112-.238.177-.386.177zm-4.392-6.415l4.39 5.13 4.394-5.13h-8.784z"/></svg>