<svg xmlns="http://www.w3.org/2000/svg" width="76" height="28" viewBox="0 0 76 28"><path fill="#242D32" d="M16 23c-.148 0-.29-.064-.386-.177l-5.492-6.415c-.128-.15-.157-.36-.074-.54.082-.18.263-.294.46-.294h10.985c.197 0 .377.114.46.293.083.18.054.39-.074.54l-5.494 6.416c-.095.113-.237.177-.386.177zm-4.392-6.415L16 21.715l4.392-5.13h-8.784zM21.878 11.592l-5.49-6.415C16.29 5.064 16.147 5 16 5c-.148 0-.29.064-.386.177l-5.492 6.415c-.13.15-.158.36-.075.54.082.18.263.294.46.294h10.984c.198 0 .378-.114.46-.293.084-.18.055-.39-.072-.54zM43.49 12.418H32.51c-.2 0-.38-.114-.463-.293-.083-.18-.053-.39.075-.54l5.492-6.416c.193-.226.58-.226.77 0l5.493 6.414c.128.15.158.36.075.54-.083.18-.263.294-.46.294zm-9.88-1.01h8.782L38 6.277l-4.39 5.13zM43.954 15.858c-.084-.18-.264-.293-.462-.293h-10.98c-.2 0-.38.114-.463.293-.084.18-.054.39.073.54l5.49 6.416c.098.113.238.177.387.177s.29-.063.386-.176L43.88 16.4c.127-.15.157-.362.074-.542z"/><g><path fill="#242D32" d="M65.49 12.418H54.51c-.2 0-.38-.114-.462-.293-.082-.18-.054-.39.075-.54l5.494-6.416c.19-.226.578-.226.77 0l5.492 6.414c.13.15.16.36.076.54-.083.18-.262.294-.46.294zm-9.883-1.01h8.783l-4.392-5.13-4.39 5.13zM60 22.992c-.15 0-.29-.064-.387-.177L54.12 16.4c-.127-.15-.155-.36-.073-.54.083-.18.263-.294.462-.294H65.49c.2 0 .378.114.46.293.084.18.056.39-.075.54l-5.492 6.415c-.096.112-.238.177-.386.177zm-4.392-6.415l4.39 5.13 4.394-5.13h-8.784z"/></g></svg>