<?xml version="1.0" encoding="utf-8"?>
<!-- Generator: Adobe Illustrator 16.0.4, SVG Export Plug-In . SVG Version: 6.00 Build 0)  -->
<!DOCTYPE svg PUBLIC "-//W3C//DTD SVG 1.1//EN" "http://www.w3.org/Graphics/SVG/1.1/DTD/svg11.dtd">
<svg version="1.1" id="Layer_1" xmlns="http://www.w3.org/2000/svg" xmlns:xlink="http://www.w3.org/1999/xlink" x="0px" y="0px"
	 width="30px" height="30px" viewBox="0 0 30 30" enable-background="new 0 0 30 30" xml:space="preserve">
<g>
	<rect x="2" y="2" fill="#FFFFFF" width="26" height="26"/>
	<rect x="2" y="2" fill="none" stroke="#535453" stroke-miterlimit="10" width="26" height="26"/>
	<rect x="2" y="2" fill="#D8D8D8" width="26" height="5.379"/>
	<rect x="2" y="2" fill="none" stroke="#535453" stroke-miterlimit="10" width="26" height="5.379"/>
	<rect x="6.034" y="10.966" fill="#D8D8D8" width="18.38" height="13.448"/>
	
		<rect x="6.034" y="10.966" fill="none" stroke="#535453" stroke-linecap="round" stroke-miterlimit="10" stroke-dasharray="2,4,2,4,2,4" width="18.38" height="13.448"/>
	
		<line fill="none" stroke="#535453" stroke-width="2" stroke-linecap="round" stroke-miterlimit="10" x1="15" y1="14.104" x2="15" y2="21.275"/>
	
		<line fill="none" stroke="#535453" stroke-width="2" stroke-linecap="round" stroke-miterlimit="10" x1="18.586" y1="17.689" x2="11.414" y2="17.689"/>
	<path fill="#FFFFFF" d="M6.034,4.689c0,0.743-0.602,1.345-1.344,1.345c-0.744,0-1.346-0.602-1.346-1.345
		c0-0.742,0.602-1.345,1.346-1.345C5.433,3.345,6.034,3.947,6.034,4.689"/>
	<circle fill="none" stroke="#535453" stroke-miterlimit="10" cx="4.689" cy="4.689" r="1.345"/>
	<path fill="#FFFFFF" d="M10.069,4.689c0,0.743-0.603,1.345-1.346,1.345c-0.742,0-1.345-0.602-1.345-1.345
		c0-0.742,0.603-1.345,1.345-1.345C9.467,3.345,10.069,3.947,10.069,4.689"/>
	<circle fill="none" stroke="#535453" stroke-miterlimit="10" cx="8.724" cy="4.689" r="1.345"/>
	<path fill="#FFFFFF" d="M14.104,4.689c0,0.743-0.603,1.345-1.345,1.345c-0.743,0-1.345-0.602-1.345-1.345
		c0-0.742,0.602-1.345,1.345-1.345C13.501,3.345,14.104,3.947,14.104,4.689"/>
	<circle fill="none" stroke="#535453" stroke-miterlimit="10" cx="12.759" cy="4.689" r="1.345"/>
</g>
</svg>
