<?xml version="1.0" encoding="utf-8"?>
<!-- Generator: Adobe Illustrator 16.0.4, SVG Export Plug-In . SVG Version: 6.00 Build 0)  -->
<!DOCTYPE svg PUBLIC "-//W3C//DTD SVG 1.1//EN" "http://www.w3.org/Graphics/SVG/1.1/DTD/svg11.dtd">
<svg version="1.1" id="Layer_1" xmlns="http://www.w3.org/2000/svg" xmlns:xlink="http://www.w3.org/1999/xlink" x="0px" y="0px"
	 width="30px" height="30px" viewBox="0 0 30 30" enable-background="new 0 0 30 30" xml:space="preserve">
<g opacity="0.4">
	<rect x="7.772" y="7.13" fill-rule="evenodd" clip-rule="evenodd" fill="#D8D9D8" width="14.958" height="19.322"/>
	<path fill-rule="evenodd" clip-rule="evenodd" fill="#535454" d="M23.495,7.235c0-0.141-0.01-0.277-0.037-0.418
		c-0.15-0.746-0.792-1.309-1.553-1.32c-0.921-0.016-0.842-0.002-1.766-0.008c-0.129,0-0.18,0.039-0.178,0.172
		c0.005,0.439,0.007,0.875-0.001,1.314c-0.003,0.146,0.07,0.16,0.188,0.16c0.671-0.004,0.343-0.004,1.015-0.002
		c0.488,0,0.69,0.195,0.69,0.676c0,5.865,0,10.732,0,16.598c-0.001,0.451-0.208,0.66-0.658,0.66c-1.663,0-4.31,0-6.194,0.002
		c-1.886-0.002-4.532-0.002-6.195-0.002c-0.451,0-0.657-0.209-0.658-0.66c0-5.865,0-10.732,0-16.598c0-0.48,0.201-0.676,0.689-0.676
		c0.672-0.002,0.344-0.002,1.016,0.002c0.117,0,0.19-0.014,0.188-0.16c-0.008-0.439-0.006-0.875-0.002-1.314
		C10.04,5.528,9.991,5.489,9.86,5.489C8.938,5.495,9.017,5.481,8.095,5.497c-0.76,0.012-1.401,0.574-1.552,1.32
		C6.515,6.958,6.507,7.095,6.507,7.235c0,6.25,0,11.498-0.002,17.748c0,0.625,0.247,1.115,0.766,1.469
		c0.182,0.123,0.396,0.17,0.594,0.256c1.012,0,3.006,0,4.896,0c2.319,0,4.481,0,4.481,0c1.891,0,3.884,0,4.896,0
		c0.197-0.086,0.411-0.133,0.594-0.256c0.519-0.354,0.765-0.844,0.765-1.469C23.495,18.733,23.495,13.485,23.495,7.235z"/>
	<path fill-rule="evenodd" clip-rule="evenodd" fill="#535454" d="M15.276,3.292c0.561,0.213,0.953,0.572,1.024,1.203
		c0.018,0.156,0.136,0.107,0.218,0.107c0.541,0.004,1.084,0,1.627,0.002c0.611,0.004,1.004,0.385,1.008,0.99
		c0.006,0.648,0.004,1.295,0.001,1.941c-0.003,0.314-0.075,0.391-0.384,0.393c-2.521,0-5.042,0-7.562,0
		c-0.309-0.002-0.381-0.076-0.382-0.393c-0.003-0.648-0.005-1.295,0-1.941c0.005-0.605,0.396-0.986,1.009-0.99
		c0.542-0.002,1.084,0.002,1.626-0.002c0.083,0,0.202,0.049,0.218-0.107c0.07-0.631,0.464-0.99,1.025-1.203
		C14.896,3.292,15.085,3.292,15.276,3.292z M15.605,4.612c0.007-0.324-0.287-0.623-0.612-0.625
		c-0.326-0.002-0.621,0.293-0.618,0.621c0.001,0.314,0.28,0.6,0.597,0.611C15.296,5.229,15.6,4.938,15.605,4.612z"/>
	<path fill-rule="evenodd" clip-rule="evenodd" fill="#535454" d="M15.018,13.716c-1.679,0-3.356,0-5.036,0
		c-0.26,0-0.367-0.127-0.317-0.359c0.028-0.129,0.101-0.211,0.239-0.211c0.049,0,0.096,0,0.143,0c3.319,0,6.638,0,9.957,0
		c0.16,0,0.323-0.016,0.373,0.191c0.059,0.25-0.049,0.379-0.32,0.379C18.377,13.716,16.697,13.716,15.018,13.716z"/>
	<path fill-rule="evenodd" clip-rule="evenodd" fill="#535454" d="M15.013,10.69c1.678,0,3.357,0,5.036,0
		c0.265,0,0.35,0.088,0.331,0.328c-0.012,0.156-0.09,0.244-0.253,0.24c-0.039,0-0.078,0.002-0.117,0.002
		c-3.326,0-6.653-0.002-9.979,0c-0.176,0.002-0.334-0.004-0.369-0.225C9.624,10.802,9.729,10.69,10,10.69
		C11.671,10.69,13.342,10.69,15.013,10.69z"/>
	<path fill-rule="evenodd" clip-rule="evenodd" fill="#535454" d="M12.341,16.171c-0.781,0-1.562-0.004-2.342,0.004
		c-0.2,0-0.342-0.043-0.342-0.275c-0.002-0.217,0.09-0.301,0.346-0.301c1.562,0,3.123,0.002,4.684-0.002
		c0.202,0,0.338,0.055,0.342,0.281c0.004,0.225-0.074,0.293-0.346,0.293C13.902,16.173,13.122,16.171,12.341,16.171z"/>
</g>
</svg>
