<?xml version="1.0" encoding="utf-8"?>
<!-- Generator: Adobe Illustrator 19.0.0, SVG Export Plug-In . SVG Version: 6.00 Build 0)  -->
<svg version="1.1" id="Layer_1" xmlns="http://www.w3.org/2000/svg" xmlns:xlink="http://www.w3.org/1999/xlink" x="0px" y="0px"
	 viewBox="876 -876 1792 1792" style="enable-background:new 876 -876 1792 1792;" xml:space="preserve">
<style type="text/css">
	.st0{fill:#CCCCCC;}
</style>
<path class="st0" d="M1900,500V308c0-9.3-3-17-9-23s-13.7-9-23-9h-192c-9.3,0-17,3-23,9s-9,13.7-9,23v192c0,9.3,3,17,9,23
	s13.7,9,23,9h192c9.3,0,17-3,23-9S1900,509.3,1900,500z M2156-172c0-58.7-18.5-113-55.5-163s-83.2-88.7-138.5-116s-112-41-170-41
	c-162,0-285.7,71-371,213c-10,16-7.3,30,8,42l132,100c4.7,4,11,6,19,6c10.7,0,19-4,25-12c35.3-45.3,64-76,86-92
	c22.7-16,51.3-24,86-24c32,0,60.5,8.7,85.5,26s37.5,37,37.5,59c0,25.3-6.7,45.7-20,61s-36,30.3-68,45c-42,18.7-80.5,47.5-115.5,86.5
	S1644,99.3,1644,144v36c0,9.3,3,17,9,23s13.7,9,23,9h192c9.3,0,17-3,23-9s9-13.7,9-23c0-12.7,7.2-29.2,21.5-49.5
	c14.3-20.3,32.5-36.8,54.5-49.5c21.3-12,37.7-21.5,49-28.5s26.7-18.7,46-35s34.2-32.3,44.5-48s19.7-35.8,28-60.5
	S2156-142.7,2156-172z M2540,20c0,139.3-34.3,267.8-103,385.5S2275.2,616.3,2157.5,685c-117.7,68.7-246.2,103-385.5,103
	s-267.8-34.3-385.5-103c-117.7-68.7-210.8-161.8-279.5-279.5S1004,159.3,1004,20s34.3-267.8,103-385.5s161.8-210.8,279.5-279.5
	c117.7-68.7,246.2-103,385.5-103s267.8,34.3,385.5,103c117.7,68.7,210.8,161.8,279.5,279.5S2540-119.3,2540,20z"/>
</svg>
