<svg id="Layer_1" xmlns="http://www.w3.org/2000/svg" viewBox="0 0 120 40"><style>.st0{fill:#242D32;}</style><path class="st0" d="M69.2 17.4H50.8c-.3 0-.6-.2-.8-.5-.1-.3-.1-.7.1-.9l9.2-10.7c.3-.4 1-.4 1.3 0L69.8 16c.2.2.3.6.1.9-.1.3-.4.5-.7.5zm-16.5-1.7h14.6L60 7.1l-7.3 8.6z"/><path id="XMLID_7_" class="st0" d="M69.9 23.1c-.1-.3-.4-.5-.8-.5H50.9c-.3 0-.6.2-.8.5-.1.3-.1.7.1.9l9.2 10.7c.2.2.4.3.6.3s.5-.1.6-.3L69.8 24c.2-.2.3-.6.1-.9z"/><path class="st0" d="M109.2 17.4H90.8c-.3 0-.6-.2-.8-.5-.1-.3-.1-.7.1-.9l9.2-10.7c.3-.4 1-.4 1.3 0l9.2 10.7c.2.2.3.6.1.9-.1.3-.4.5-.7.5zm-16.5-1.7h14.6L100 7.1l-7.3 8.6zM100 35c-.2 0-.5-.1-.6-.3L90.2 24c-.2-.2-.3-.6-.1-.9.1-.3.4-.5.8-.5h18.3c.3 0 .6.2.8.5.1.3.1.7-.1.9l-9.2 10.7c-.2.2-.5.3-.7.3zm-7.3-10.7l7.3 8.5 7.3-8.5H92.7z"/><g><path class="st0" d="M20 35c-.2 0-.5-.1-.6-.3L10.2 24c-.2-.3-.3-.6-.1-.9.1-.3.4-.5.8-.5h18.3c.3 0 .6.2.8.5.1.3.1.7-.1.9l-9.2 10.7c-.2.2-.5.3-.7.3zm-7.3-10.7l7.3 8.5 7.3-8.5H12.7z"/><path id="XMLID_1_" class="st0" d="M29.8 16L20.6 5.3c-.1-.2-.4-.3-.6-.3-.2 0-.5.1-.6.3L10.2 16c-.2.3-.3.6-.1.9.1.3.4.5.8.5h18.3c.3 0 .6-.2.8-.5.1-.3 0-.7-.2-.9z"/></g></svg>